<?xml version="1.0" encoding="UTF-8" standalone="yes"?><svg xmlns="http://www.w3.org/2000/svg" xmlns:xlink="http://www.w3.org/1999/xlink" width="297.000mm" height="210.000mm" viewBox="0.000000 0.000000 297.000000 210.000000" stroke-linejoin="round" stroke-linecap="round" fill="none" fill-rule="evenodd"><desc>Composer Export</desc><script type="text/ecmascript"><![CDATA[
if(typeof(top) != "undefined")
{
	top.ShowPaper = ShowPaper;
}
function ShowHotSpot(evt,hotspotid)
{
	var svgDocument = evt.target.ownerDocument;
	var strId = "hotspot."+hotspotid;
	var hotspot = svgDocument.getElementById(strId);
	if(hotspot)
		hotspot.setAttribute("opacity",".5");
}
function HideHotSpot(evt,hotspotid)
{
	var svgDocument = evt.target.ownerDocument;
	var strId = "hotspot."+hotspotid;
	var hotspot = svgDocument.getElementById(strId);
	if(hotspot)
		hotspot.setAttribute("opacity","0");

	var toolTip = svgDocument.getElementById('ToolTip');
	if(toolTip)
		toolTip.setAttribute("visibility","hidden");
}
function ShowToolTip(evt,hotspotid,strTooltip)
{
	if(strTooltip=="")
	return;

	// change text
	var svgDocument = evt.target.ownerDocument;
	var tiptext = svgDocument.getElementById('ToolTipText');
	if( !tiptext )
	return;
	tiptext.firstChild.nodeValue = " " + strTooltip + "  " ;

	// show tooltip before, else some refresh issue

	var toolTip = svgDocument.getElementById('ToolTip');
	if(!toolTip)
	return;

	toolTip.setAttribute("visibility","visible");
	toolTip.setAttribute("opacity",".95");

	// move tooltip
	// get viewbox

	var root = svgDocument.documentElement;
	var vbox = (root.getAttribute("viewBox")).split(' ');
	var x0 = parseFloat(vbox[0]);
	var y0 = parseFloat(vbox[1]);
	var vboxW = parseFloat(vbox[2]);
	var vboxH = parseFloat(vbox[3]);

	// get default width of svg

	var strW = root.getAttribute("width");
	var svgW = parseFloat(strW);
	if(strW.indexOf('mm') != -1)
	svgW *= 3.779;

	var strH = root.getAttribute("height");
	var svgH = parseFloat(strH);
	if(strH.indexOf('mm') != -1)
	svgH *= 3.779;  	// 96 dpi  -> 96/25.4 = 3.779

	// update the viewbox / width / height if svg is embedded in html with zoom fit all
	var realx0 = x0;
	var realy0 = y0;
	var realvboxW = vboxW;
	var realvboxH = vboxH;
	var realsvgW = svgW;
	var realsvgH = svgH;

	if ((typeof(top) == "undefined") || (typeof(top.svgctl1) != "undefined")) // embedded in html
	{
		// get window size in pxl

		svgW = window.innerWidth;
		svgH = window.innerHeight;

		// calculate real viewbox

		realsvgW = svgW;
		realsvgH = svgH;
		if((svgW / svgH) > (vboxW / vboxH))
		{
			realvboxW = (vboxH * svgW) / svgH;
			realvboxH = vboxH;
			realx0 = x0 - (realvboxW - vboxW)/2 ;
		}
		else
		{
			realvboxH = (vboxW * svgH) / svgW;
			realvboxW = vboxW;
			realy0 = y0 - (realvboxH - vboxH)/2 ;
		}
	}

	// get user zoom/pan

	var newScale = root.currentScale;
	var translation = root.currentTranslate;

	// transform pxl to user unit

	var xPos = (((evt.clientX+10- translation.x)/newScale) * realvboxW)/realsvgW  + realx0 ;
	var yPos = (((evt.clientY+5- translation.y)/newScale) * realvboxH)/ realsvgH  + realy0 ;
	var scaleForWidth = ( (1 / newScale) * realvboxH) / realsvgH;

	// move tooltip

	toolTip.setAttribute("transform", "translate(" + xPos + "," + yPos + ")" );

	// resize tooltip

	var fontsize = 12;
	tiptext.setAttribute("font-size",fontsize*scaleForWidth);
	tiptext.setAttribute("y", fontsize*scaleForWidth);
	var tipBG = svgDocument.getElementById('ToolTipBG');
	var outline = tiptext.getBBox();
	if(tipBG)
	{
		tipBG.setAttribute("stroke-width", 1*scaleForWidth);
		tipBG.setAttribute("width", Number(outline.width) );
		tipBG.setAttribute("height", Number(outline.height) + fontsize*.5*scaleForWidth );
	}
	var ToolTipShadow = svgDocument.getElementById('ToolTipShadow');
	if(ToolTipShadow)
	{
		ToolTipShadow.setAttribute("width", Number(outline.width) );
		ToolTipShadow.setAttribute("height", Number(outline.height) + fontsize*.5*scaleForWidth );
		ToolTipShadow.setAttribute("x", 3*scaleForWidth);
		ToolTipShadow.setAttribute("y", 3*scaleForWidth);
	}
}
function ShowPaper()
{
  var svgDocument = getDocument();
  var paper = svgDocument.getElementById("paperID");
  if(paper)
  {
    paper.setAttribute("transform","scale(1)");
    paper.setAttribute("opacity","1");
    paper.setAttribute("visibility","visible");
  }
  var svg = svgDocument.getRootElement();
  if(svg)
  {
    svg.setAttribute("width","307.000mm");
    svg.setAttribute("height","220.000mm");
    svg.setAttribute("viewBox","-5.000000 -5.000000 307.000000 220.000000");
  }
}
]]></script><defs/><g><path style="fill:#ffffff" d="M296.80,209.72L0.10,209.72L0.10,0.10L296.80,0.10z"/><path style="fill:#c6c1bc" d="M110.12,34.15L110.73,35.46L147.42,45.83L148.02,41.99L149.83,40.91L151.87,40.56L152.52,40.91L153.81,42.19L154.17,43.36L152.08,43.47L150.59,44.55L150.49,46.51L153.73,45.45L154.12,45.20L154.31,43.69L154.80,44.09L154.82,44.98L154.17,45.89L152.43,46.72L150.15,47.01L150.25,51.00L151.91,50.91L153.85,50.07L154.75,48.75L154.95,48.20L156.05,48.30L226.46,68.32L227.07,64.48L228.56,63.41L229.52,63.08L230.93,63.07L232.24,64.01L232.95,65.45L232.09,65.66L229.31,67.05L229.21,69.00L232.87,67.72L233.19,67.40L233.38,66.17L233.54,67.80L231.88,68.97L229.19,69.50L229.28,73.44L229.65,73.09L230.62,73.14L230.89,73.42L233.21,71.91L233.95,70.69L235.10,70.79L246.78,74.26L208.10,129.38L207.55,131.08L207.38,131.22L207.32,134.96L206.38,136.02L201.14,135.98L197.16,136.01L196.98,136.76L195.59,136.33L194.63,135.36L175.97,133.45L173.17,133.41L172.44,133.12L171.28,133.10L162.79,132.18L156.05,130.23L154.93,130.11L153.55,129.58L126.59,122.01L123.40,121.04L120.78,120.26L117.95,119.56L110.74,117.39L109.55,117.25L106.24,116.43L79.25,113.85L73.99,113.83L72.60,115.40L72.43,115.47L72.38,120.20L71.76,121.24L69.59,121.26L66.60,120.47L64.35,119.82L64.45,91.12L65.53,89.24L67.36,86.96L68.12,85.53L69.33,84.11L104.96,33.31L106.90,33.20z"/><path style="fill:#c0c0c0" d="M153.55,79.01L158.31,80.46L159.16,80.47L162.20,79.04L162.22,79.98L159.82,81.10L158.18,81.39L158.19,83.44L165.19,85.37L166.95,85.92L171.84,87.08L172.73,87.54L184.04,90.65L184.64,90.88L184.67,87.47L184.18,87.08L184.33,84.08L185.65,82.89L186.15,88.25L193.00,90.40L194.05,91.52L193.92,92.32L194.31,92.95L194.47,99.94L194.31,100.52L193.51,100.91L193.03,94.55L192.64,93.89L192.25,93.90L192.33,94.91L192.70,95.52L192.70,104.98L188.59,111.16L174.08,107.03L174.50,106.11L174.75,105.50L173.41,104.51L172.90,104.48L168.69,103.21L166.14,102.54L162.21,101.19L162.18,100.69L160.10,100.66L159.47,100.99L158.33,102.54L144.78,98.78L143.86,98.32L147.71,92.45L147.76,83.85L147.78,83.22L150.47,79.13L151.11,78.81z"/><path style="fill:#bbbbbb" d="M153.82,86.21L154.19,86.74L153.17,88.21L152.45,88.10L152.65,89.32L151.57,88.13L151.04,88.03L150.40,87.62L149.42,87.65L148.73,88.09L148.44,89.66L148.24,89.55L148.36,86.66L149.51,85.57L151.55,84.91z"/><path style="fill:#bbbbbb" d="M190.95,97.05L190.11,98.84L189.45,98.43L189.64,101.52L188.96,101.96L187.30,101.94L185.63,100.99L184.95,100.06L184.96,98.20L185.45,96.77L186.46,95.85L187.44,95.52L188.51,95.51z"/><path style="fill:#b2adaa" d="M126.85,53.86L123.49,54.08L121.88,54.73L120.09,56.14L119.52,57.12L119.29,57.28L104.92,77.65L105.01,79.68L103.55,79.77L103.05,80.24L101.97,82.37L101.61,85.15L101.47,85.45L101.10,85.28L100.64,83.01L120.25,55.02L121.89,53.77L124.14,53.13L126.85,53.14z"/><path style="fill:#acacac" d="M162.21,101.19L159.79,101.63L158.75,102.74L158.33,102.54L159.47,100.99L160.10,100.66L162.18,100.69z"/><path style="fill:#ffffff" d="M145.15,59.53L146.82,61.78L147.39,62.75L147.54,65.87L147.71,67.58L148.36,68.21L150.00,68.70L150.23,68.88L151.62,69.14L151.89,70.17L151.56,72.52L149.45,77.03L146.09,76.26L142.13,76.26L137.72,77.32L127.04,81.73L123.49,82.69L116.53,82.69L110.40,81.42L105.90,80.14L105.01,79.68L104.92,77.65L119.29,57.28L119.52,57.12z"/><path style="fill:#ffffff" d="M166.14,102.54L168.69,103.21L171.45,105.21L172.53,105.37L174.50,106.11L174.08,107.03L158.75,102.74L159.79,101.63L162.21,101.19z"/><path style="fill:#a8a8a8" d="M148.83,88.66L148.73,89.61L148.44,89.66L148.73,88.09z"/><path style="fill:#fff2e8" d="M151.70,88.99L151.56,89.19L151.33,90.87L149.92,90.74L148.73,89.61L148.83,88.66L149.50,88.14L151.04,88.03z"/><path style="fill:#fff2e8" d="M187.98,98.70L188.32,99.30L188.36,101.23L188.29,101.50L187.20,101.34L186.26,100.99L185.66,99.92L186.08,98.68L187.25,98.30z"/><path style="fill:#fff2e8" d="M146.75,100.34L146.78,101.86L145.69,102.63L143.40,102.91L143.30,105.34L142.53,105.22L141.59,104.54L141.59,100.14L142.75,99.38L145.46,99.38z"/><path style="fill:#fff2e8" d="M177.95,108.98L178.43,109.88L178.23,110.76L177.17,111.63L174.89,111.91L174.78,114.33L174.02,114.21L173.08,113.53L173.08,109.14L174.24,108.37L176.95,108.37z"/><path style="fill:#e5e5e5" d="M110.12,118.01L114.58,120.62L117.27,121.15L117.41,121.32L122.87,121.26L123.40,121.04L126.59,122.01L123.17,122.85L118.12,122.86L115.25,121.88L113.34,120.95L112.70,120.92L109.10,117.66L109.03,117.37L109.55,117.25z"/><path style="fill:#b2adaa" d="M122.49,89.32L122.34,90.53L122.02,90.85L118.36,92.14L118.46,90.18L121.24,88.79L122.33,88.67z"/><path style="fill:#acacac" d="M163.11,82.05L165.07,84.28L165.19,85.37L158.19,83.44L158.18,81.39L159.82,81.10L162.22,79.98z"/><path style="fill:#acacac" d="M193.03,94.55L193.51,100.91L193.32,104.00L192.23,107.01L192.03,107.22L189.25,111.39L188.59,111.16L192.70,104.98L192.70,95.52L192.33,94.91L192.25,93.90L192.64,93.89z"/><path style="fill:#808080" d="M178.54,65.34L181.75,66.94L183.03,68.24L184.65,69.51L186.06,71.06L186.90,73.04L186.94,75.50L186.49,76.60L184.69,78.97L180.79,81.18L176.83,82.04L171.04,82.02L171.07,86.63L171.84,87.08L166.95,85.92L165.19,85.37L165.07,84.28L163.11,82.05L162.22,79.98L162.20,79.04L162.46,72.81L163.30,71.09L164.29,69.82L166.24,68.24L168.12,66.58L169.00,65.95L172.01,65.01L177.26,65.01z"/><path style="fill:#afafaf" d="M149.42,62.59L149.72,62.78L149.22,63.44L149.20,64.45L149.93,64.71L150.02,67.12L148.96,66.97L147.54,65.87L147.39,62.75L146.82,61.78z"/><path style="fill:#afafaf" d="M172.90,104.48L172.53,105.37L171.45,105.21L168.69,103.21z"/><path style="fill:#c6c1bc" d="M148.96,66.97L150.02,67.12L150.25,67.28L152.43,67.28L154.64,66.27L155.14,65.55L155.15,66.52L154.48,67.08L152.75,67.92L150.16,68.24L150.00,68.70L148.36,68.21L147.71,67.58L147.54,65.87z"/><path style="fill:#ffffff" d="M117.95,119.56L116.43,120.29L117.27,121.15L114.58,120.62L110.12,118.01L109.55,117.25L110.74,117.39z"/><path style="fill:#e5d9d0" d="M151.56,89.19L151.70,88.99L151.89,89.11L151.69,90.90L151.33,90.87z"/><path style="fill:#e5d9d0" d="M188.96,99.58L188.84,100.83L188.36,101.23L188.32,99.30z"/><path style="fill:#e5d9d0" d="M143.74,101.35L142.77,101.45L142.77,100.37L143.89,100.06z"/><path style="fill:#e5d9d0" d="M146.75,104.34L145.69,105.20L143.30,105.34L143.40,102.91L145.69,102.63L146.78,101.86z"/><path style="fill:#e5d9d0" d="M175.23,110.35L174.25,110.44L174.36,109.47L175.37,109.05z"/><path style="fill:#e5d9d0" d="M178.56,112.69L178.23,113.32L177.17,114.20L174.78,114.33L174.89,111.91L177.17,111.63L178.23,110.76L178.43,109.88L178.55,109.99z"/><path style="fill:#a8a8a8" d="M154.47,87.15L154.46,89.55L154.14,90.20L152.62,91.19L152.83,89.47L152.65,89.32L152.45,88.10L153.17,88.21L154.19,86.74z"/><path style="fill:#a8a8a8" d="M191.41,99.83L190.76,100.79L189.64,101.52L189.45,98.43L190.11,98.84L190.95,97.05L191.09,97.15z"/><path style="fill:#a8a8a8" d="M185.33,99.61L185.18,98.78L185.39,98.70z"/><path style="fill:#9d9d9d" d="M152.41,62.77L154.04,62.48L154.64,61.98L155.57,62.30L155.42,62.51L155.14,65.55L154.64,66.27L152.43,67.28L150.25,67.28L150.02,67.12L149.93,64.71L149.20,64.45L149.22,63.44L149.72,62.78z"/><path style="fill:#9d9d9d" d="M174.75,105.50L174.50,106.11L172.53,105.37L172.90,104.48L173.41,104.51z"/><path style="fill:#0000ff" d="M152.65,89.32L152.18,90.84L151.69,90.90L151.89,89.11L151.70,88.99L151.04,88.03L151.57,88.13z"/><path style="fill:#0000ff" d="M151.04,88.03L149.50,88.14L148.83,88.66L148.73,88.09L149.42,87.65L150.40,87.62z"/><path style="fill:#0000ff" d="M188.87,99.03L188.96,99.58L188.32,99.30L187.98,98.70L188.52,98.71z"/><path style="fill:#0000ff" d="M187.25,98.30L186.08,98.68L185.66,99.92L185.33,99.61L185.39,98.70L186.14,98.08L187.19,98.12z"/><path style="fill:#0000ff" d="M189.05,101.36L188.29,101.50L188.36,101.23L188.84,100.83L188.96,99.58L189.14,99.72z"/><path style="fill:#bbbbbb" d="M149.92,90.74L151.33,90.87L151.69,90.90L152.18,90.84L152.65,89.32L152.83,89.47L152.62,91.19L152.42,91.38L150.25,91.38L148.65,90.40L148.44,89.66L148.73,89.61z"/><path style="fill:#737373" d="M184.01,70.47L183.92,74.35L182.60,76.57L179.41,78.52L176.83,79.15L172.10,79.17L172.00,77.21L175.88,76.91L178.87,76.04L181.31,74.63L182.94,72.73L183.38,71.88L183.66,69.50z"/><path style="fill:#737373" d="M176.83,82.04L180.79,81.18L184.69,78.97L186.49,76.60L186.94,75.50L186.90,80.23L185.65,82.89L184.33,84.08L184.18,87.08L184.04,90.65L172.73,87.54L171.84,87.08L171.07,86.63L171.04,82.02z"/><path style="fill:#737373" d="M147.78,83.22L147.76,83.85L146.54,83.46L144.26,83.28L141.81,83.33L138.60,84.29L132.82,86.87L126.73,89.13L122.80,89.64L122.49,89.32L122.33,88.67L122.44,88.44L128.10,86.65L136.68,83.02L140.20,82.05L144.16,82.04z"/><path style="fill:#737373" d="M109.13,87.20L115.91,88.37L115.94,89.23L115.64,89.70L108.93,88.36L107.86,87.82L106.68,87.72L105.61,87.18L104.42,87.08L103.55,86.73L102.07,86.22L101.47,85.45L101.61,85.15z"/><path style="fill:#e5e5e5" d="M151.62,69.14L154.24,68.19L154.12,70.26L153.16,73.47L150.95,77.45L149.45,77.03L151.56,72.52L151.89,70.17z"/><path style="fill:#e5e5e5" d="M132.69,95.18L137.60,89.73L141.14,86.51L144.26,83.28L146.54,83.46L139.69,89.89L135.99,93.90L134.61,95.73z"/><path style="fill:#e5e5e5" d="M206.61,104.42L205.97,105.14L199.64,106.13L194.83,107.75L191.38,109.77L189.58,111.43L189.25,111.39L192.03,107.22L192.23,107.01L197.72,105.18L203.50,104.21L206.62,104.18z"/><path style="fill:#e5e5e5" d="M120.78,120.26L119.98,120.95L117.27,121.15L116.43,120.29L117.95,119.56z"/><path style="fill:#e5e5e5" d="M154.93,130.11L154.44,130.99L151.26,134.87L146.76,138.73L141.59,141.59L136.99,142.77L131.95,142.77L128.36,141.82L128.00,141.45L130.01,141.82L133.76,142.15L137.73,141.59L142.13,139.88L147.74,136.17L151.87,131.95L153.55,129.58z"/><path style="fill:#e5e5e5" d="M173.17,133.41L170.54,137.45L169.20,140.61L169.25,142.55L168.96,142.48L168.55,141.83L168.57,138.36L170.73,134.10L171.28,133.10L172.44,133.12z"/><path style="fill:#e5e5e5" d="M172.09,149.54L176.61,150.16L181.33,150.16L186.16,149.53L189.14,148.65L191.94,147.28L194.80,144.68L196.53,140.95L197.29,136.97L200.21,136.65L199.42,140.62L198.14,143.52L196.24,146.12L192.57,148.55L188.42,150.18L184.54,150.80L175.65,150.81L171.46,149.86L170.41,149.16z"/><path style="fill:#b2adaa" d="M154.31,43.69L154.12,45.20L153.73,45.45L150.49,46.51L150.59,44.55L152.08,43.47L154.17,43.36z"/><path style="fill:#b2adaa" d="M155.05,50.03L155.41,48.92L155.43,53.89L155.13,54.24L153.17,55.50L150.55,55.75L150.16,55.47L150.15,52.47L153.07,52.18L155.08,51.03z"/><path style="fill:#b2adaa" d="M154.95,48.20L154.75,48.75L153.85,50.07L151.91,50.91L150.25,51.00L150.15,47.01L152.43,46.72L154.17,45.89L154.82,44.98z"/><path style="fill:#b2adaa" d="M154.64,61.98L154.04,62.48L152.41,62.77L149.72,62.78L149.42,62.59L149.52,60.49z"/><path style="fill:#b2adaa" d="M150.00,68.70L150.16,68.24L152.75,67.92L154.48,67.08L155.15,66.52L155.11,67.05L154.24,68.19L151.62,69.14L150.23,68.88z"/><path style="fill:#b2adaa" d="M233.38,66.17L233.19,67.40L232.87,67.72L229.21,69.00L229.31,67.05L232.09,65.66L232.95,65.45z"/><path style="fill:#b2adaa" d="M233.80,70.49L233.95,70.69L233.21,71.91L230.89,73.42L230.62,73.14L229.65,73.09L229.28,73.44L229.19,69.50L231.88,68.97L233.54,67.80z"/><path style="fill:#b2adaa" d="M234.14,72.06L234.47,75.74L233.36,77.20L232.12,77.89L228.87,77.98L228.87,74.96L231.79,74.67L233.71,73.66z"/><path style="fill:#b2adaa" d="M247.34,74.61L247.15,78.08L246.98,75.91L246.23,75.88L243.89,79.31L243.63,79.45L207.55,131.08L208.10,129.38L246.78,74.26z"/><path style="fill:#b2adaa" d="M68.36,91.97L68.70,92.28L68.89,94.08L69.25,94.08L70.60,91.67L70.25,94.03L65.76,96.93L65.44,118.48L65.42,91.77L67.04,91.69z"/><path style="fill:#b2adaa" d="M118.34,92.63L121.02,92.11L122.68,90.94L122.81,92.53L122.65,94.70L121.86,95.51L119.97,96.25L119.72,96.57L119.04,96.19L118.76,96.57L118.47,96.56z"/><path style="fill:#b2adaa" d="M118.02,101.12L118.02,98.10L120.94,97.81L122.85,96.82L123.51,94.88L123.61,99.19L123.29,99.84L122.36,100.51L119.95,101.35z"/><path style="fill:#b2adaa" d="M201.03,113.31L199.33,113.86L196.75,114.30L196.76,112.57L198.66,111.59L201.14,111.52z"/><path style="fill:#b2adaa" d="M198.68,114.84L201.05,113.98L201.69,113.20L201.99,116.42L200.40,118.14L198.68,118.66L198.12,119.14L197.44,118.75L197.09,118.43L197.07,114.79z"/><path style="fill:#b2adaa" d="M72.38,120.20L72.43,115.47L72.60,115.40z"/><path style="fill:#b2adaa" d="M66.60,120.47L66.28,120.93L65.43,120.97L64.41,120.32L64.35,119.82z"/><path style="fill:#b2adaa" d="M202.34,121.69L201.72,122.68L199.98,123.51L197.06,123.61L197.06,120.59L200.63,119.98L201.68,119.10L202.32,117.04z"/><path style="fill:#b2adaa" d="M207.32,134.96L207.38,131.22L207.55,131.08z"/><path style="fill:#b2adaa" d="M201.14,135.98L200.21,136.65L197.29,136.97L196.98,136.76L197.16,136.01z"/><path style="fill:#acacac" d="M194.93,92.96L194.95,99.20L194.47,99.94L194.31,92.95L193.92,92.32L194.05,91.52L194.30,91.62z"/><path style="fill:#808080" d="M149.45,77.03L150.95,77.45L153.55,79.01L151.11,78.81L150.47,79.13L147.78,83.22L144.16,82.04L140.20,82.05L136.68,83.02L128.10,86.65L122.44,88.44L120.71,86.54L120.08,86.20L118.67,86.21L116.71,87.15L115.91,88.37L109.13,87.20L101.61,85.15L101.97,82.37L103.05,80.24L103.55,79.77L105.01,79.68L105.90,80.14L110.40,81.42L116.53,82.69L123.49,82.69L127.04,81.73L137.72,77.32L142.13,76.26L146.09,76.26z"/><path style="fill:#808080" d="M175.97,83.11L175.54,83.11L175.54,82.68L175.97,82.68z"/><path style="fill:#c0c0c0" d="M67.36,86.96L65.53,89.24L66.62,86.22L67.24,85.54L68.12,85.53z"/><path style="fill:#c6c1bc" d="M247.15,78.08L246.55,79.15L243.89,79.31L246.23,75.88L246.98,75.91z"/><path style="fill:#ffffff" d="M169.00,65.95L168.12,66.58L166.24,68.24L164.29,69.82L163.30,71.09L162.46,72.81L162.20,79.04L159.16,80.47L158.31,80.46L153.55,79.01L150.95,77.45L153.16,73.47L154.12,70.26L154.24,68.19L155.11,67.05L155.15,66.52L155.14,65.55L155.42,62.51L155.57,62.30L156.69,62.44z"/><path style="fill:#ffffff" d="M218.37,80.13L220.32,81.07L221.30,82.36L221.30,83.44L210.99,98.20L206.62,104.18L203.50,104.21L197.72,105.18L192.23,107.01L193.32,104.00L193.51,100.91L194.31,100.52L194.47,99.94L194.95,99.20L194.93,92.96L194.30,91.62L194.05,91.52L193.00,90.40L186.15,88.25L185.65,82.89L186.90,80.23L186.94,75.50L186.90,73.04L186.06,71.06L187.23,71.11z"/><path style="fill:#ffffff" d="M147.76,83.85L147.71,92.45L143.86,98.32L140.28,97.49L134.61,95.73L135.99,93.90L139.69,89.89L146.54,83.46z"/><path style="fill:#ffffff" d="M104.42,87.08L103.59,86.94L103.55,86.73z"/><path style="fill:#ffffff" d="M184.67,87.47L184.64,90.88L184.04,90.65L184.18,87.08z"/><path style="fill:#ffffff" d="M106.68,87.72L105.25,87.54L104.42,87.08L105.61,87.18z"/><path style="fill:#ffffff" d="M108.93,88.36L107.50,88.18L106.68,87.72L107.86,87.82z"/><path style="fill:#ffffff" d="M115.64,89.70L115.57,90.19L114.25,90.09L109.75,88.82L108.93,88.36z"/><path style="fill:#ffffff" d="M122.81,92.53L122.68,90.94L122.80,89.64L126.73,89.13L132.82,86.87L138.60,84.29L141.81,83.33L144.26,83.28L141.14,86.51L137.60,89.73L132.69,95.18z"/><path style="fill:#ffffff" d="M199.45,108.69L197.39,108.71L195.25,109.78L194.95,111.40L194.27,112.69L193.31,112.60L189.58,111.43L191.38,109.77L194.83,107.75L199.64,106.13L205.97,105.14L205.89,105.61L202.01,111.08L201.14,111.52L199.81,108.97z"/><path style="fill:#ffffff" d="M123.40,121.04L122.87,121.26L117.41,121.32L117.27,121.15L119.98,120.95L120.78,120.26z"/><g id="Actor_.0"><g style="stroke:#000000;stroke-width:0.176"><path d="M68.01,86.11L67.89,86.24L67.70,86.50L67.51,86.80L67.46,86.89"/><path d="M67.89,85.45L67.89,85.45"/></g><g style="stroke:#000000;stroke-width:0.529"><path d="M67.89,85.45L67.82,85.45L67.71,85.46L67.53,85.51L67.42,85.57L67.36,85.60L67.24,85.69L67.11,85.80L66.98,85.93L66.95,85.97L66.82,86.13L66.69,86.30L66.56,86.50L66.43,86.71L66.31,86.95L66.19,87.19L66.07,87.46L65.95,87.73L65.85,88.01L65.74,88.30L65.65,88.60L65.56,88.90L65.48,89.20L65.41,89.51L65.35,89.81L65.34,89.92"/><path d="M67.89,85.45L68.04,85.48L68.38,85.57"/></g></g><g id="Actor_.1"><g style="stroke:#000000;stroke-width:0.176"><path d="M64.48,91.14L64.85,90.83L65.31,90.67L65.88,90.62L66.49,90.73L70.42,91.85L70.43,92.73L70.00,92.61L69.81,93.21L69.63,93.62L69.43,93.95L69.23,94.19L69.04,94.31L68.88,94.31L68.75,94.19L68.67,93.95L68.65,93.61L68.69,93.05"/><path d="M65.78,121.10L65.59,120.91L65.47,120.56L65.42,120.03L65.23,92.32L65.27,92.06L65.39,91.84L65.60,91.67L65.86,91.58L66.16,91.56L66.49,91.62L68.86,92.29"/><path d="M65.52,97.48L66.00,96.80L70.49,93.92L70.49,94.29L65.52,97.48L65.68,120.23L66.65,120.51"/><path d="M68.95,92.32L70.00,92.61"/><path d="M70.42,91.85L71.49,90.32L71.54,90.34L71.25,90.82L71.00,91.38L70.78,92.00L70.62,92.64L70.52,93.26L70.49,93.92"/><path d="M70.43,92.73L70.69,92.35"/><path d="M71.49,90.32L71.49,90.42"/><path d="M71.97,121.13L72.18,120.77L72.24,120.33L72.22,116.84L72.35,115.89L72.73,115.07L73.05,114.73"/><path d="M170.36,65.56L127.70,53.42L126.26,53.15L125.18,53.13L124.76,53.12L123.29,53.35L121.96,53.81L120.87,54.48L120.07,55.30L101.12,82.34L100.68,83.27L100.64,84.23L100.68,84.35"/><path d="M110.70,34.39L109.63,35.92L109.68,35.93L109.97,35.58L110.23,35.41L110.58,35.45"/><path d="M115.02,99.15L115.02,98.19L114.96,98.97L115.22,99.69L115.77,100.33L116.56,100.87L117.52,101.24L118.62,101.45L119.76,101.47L120.87,101.29L121.88,100.94L122.71,100.44L123.32,99.81L123.65,99.11L123.67,98.33L123.67,98.59"/><path d="M115.02,99.08L115.01,99.11"/><path d="M115.02,98.19L115.00,95.27L115.04,95.71L115.18,96.14L115.34,96.42L115.66,96.81L116.07,97.16L116.39,97.37L116.94,97.64L117.54,97.85L118.21,98.00L118.87,98.08L119.33,98.09L120.25,98.02L120.69,97.94L121.53,97.70L122.26,97.34L122.87,96.89L123.21,96.51L123.47,96.10L123.57,95.81L123.63,95.52L123.64,95.22L123.61,94.93L123.52,94.65L123.39,94.36L123.20,94.08L122.91,93.77"/><path d="M115.00,95.27L115.03,94.98L115.11,94.69L115.24,94.42L115.43,94.13L115.70,93.82"/><path d="M115.71,93.96L115.52,94.24L115.39,94.51L115.31,94.78L115.28,95.05L115.30,95.33L115.35,95.60L115.46,95.87L115.60,96.13L115.79,96.37L116.29,96.82L116.92,97.19L117.28,97.34L117.66,97.46L118.47,97.63L119.33,97.69L120.18,97.62L120.60,97.55L121.38,97.32L122.07,96.98L122.36,96.78L122.84,96.34L123.04,96.08L123.19,95.82L123.29,95.55L123.34,95.28L123.35,95.02L123.32,94.73L123.24,94.48L123.11,94.20L122.91,93.91"/><path d="M122.08,95.46L121.90,95.83L121.72,96.04L121.26,96.41L120.97,96.56L120.66,96.69L120.05,96.84L119.24,96.91L118.50,96.84L117.88,96.66L117.53,96.51L117.26,96.35L116.83,95.97L116.67,95.75L116.56,95.49"/><path d="M119.36,57.22L120.08,56.19L120.87,55.36L121.97,54.70L123.30,54.24L124.76,54.01L126.27,54.03L127.71,54.30L155.04,62.08"/><path d="M123.67,98.33L123.64,95.22"/><path d="M145.56,59.39L145.60,59.71"/><path d="M147.32,54.19L147.21,54.05L146.96,53.38L146.96,52.91"/><path d="M147.64,48.25L147.27,48.70L147.11,48.98L147.01,49.27L146.94,49.56L146.96,53.38"/><path d="M146.93,49.85L146.97,50.15L147.06,50.44L147.19,50.72L147.37,50.99L147.86,51.49L148.17,51.71L148.69,51.99L149.48,52.29L150.13,52.44L150.58,52.50L151.50,52.52L152.39,52.43L153.26,52.20L154.03,51.87L154.52,51.56L154.93,51.20L155.15,50.94L155.33,50.67L155.46,50.39L155.55,50.10L155.58,49.80L155.57,49.51L155.51,49.22L155.40,48.93L155.24,48.65L154.85,48.20"/><path d="M147.70,54.64L147.81,54.74"/><path d="M154.85,48.35L155.12,48.77L155.21,49.00L155.28,49.30L155.29,49.58L155.26,49.85L155.18,50.12L155.06,50.39L154.69,50.89L154.44,51.11L153.84,51.51L153.13,51.82L152.33,52.02L151.48,52.12L150.63,52.09L150.20,52.04L149.40,51.84L149.03,51.70L148.50,51.43L148.09,51.15L147.84,50.93L147.63,50.69L147.34,50.17L147.26,49.90L147.22,49.63L147.23,49.35L147.29,49.08L147.39,48.81L147.64,48.40"/><path d="M148.50,49.93L148.61,50.19L148.77,50.40L149.20,50.78L149.47,50.94L150.10,51.19L150.45,51.27L151.17,51.34L151.91,51.29L152.58,51.13L152.91,51.00L153.19,50.85L153.66,50.48L153.83,50.27L154.02,49.89"/><path d="M148.50,55.21L148.67,55.28"/><path d="M149.46,55.59L149.55,55.62"/><path d="M150.43,55.78L150.78,55.82"/><path d="M151.61,55.83L151.83,55.82"/><path d="M152.39,55.74L152.86,55.66L153.87,55.31L154.70,54.81L155.30,54.18L155.62,53.49L155.61,53.45"/><path d="M155.58,49.80L155.61,53.52"/><path d="M155.62,53.49L155.67,52.74L155.60,52.57"/><path d="M221.49,82.92L221.52,82.15L221.18,81.22L220.47,80.37L219.43,79.67L218.15,79.17L184.65,69.63"/><path d="M193.90,120.65L193.88,117.73L193.89,118.02L193.95,118.31L194.07,118.60L194.22,118.88L194.67,119.39L195.12,119.72L195.63,120.02L196.43,120.31L197.30,120.49L198.21,120.55L199.13,120.48L200.00,120.29L200.79,119.99L201.47,119.58L201.99,119.10L202.19,118.83L202.35,118.55L202.46,118.26L202.52,117.97L202.53,117.68L202.56,120.83L202.52,121.58L202.20,122.27L201.60,122.89L200.76,123.40L199.76,123.75L198.64,123.92L197.51,123.91L196.40,123.70L195.44,123.32L194.64,122.79L194.10,122.14L193.91,121.60L193.90,120.65L193.84,121.43L193.91,121.60"/><path d="M193.90,121.54L193.89,121.56"/><path d="M201.80,116.37L202.00,116.67L202.12,116.92L202.20,117.19L202.24,117.46L202.23,117.74L202.17,118.01L201.93,118.54L201.74,118.79L201.51,119.02L200.95,119.44L200.24,119.78L199.48,120.00L198.64,120.12L198.21,120.14L197.36,120.09L196.54,119.92L196.16,119.79L195.80,119.64L195.17,119.28L194.68,118.83L194.34,118.32L194.24,118.06L194.18,117.78L194.17,117.51L194.20,117.23L194.28,116.97L194.40,116.70L194.59,116.41"/><path d="M194.59,116.27L194.31,116.59L194.13,116.86L194.00,117.14L193.91,117.44L193.88,117.73"/><path d="M195.44,117.95L195.57,118.22L195.71,118.42L195.93,118.64L196.41,118.96L196.71,119.10L197.39,119.29L198.11,119.36L198.85,119.31L199.20,119.24L199.85,119.02L200.14,118.86L200.59,118.51L200.78,118.29L200.96,117.91"/><path d="M201.80,116.22L202.09,116.54L202.27,116.81L202.41,117.11L202.49,117.38L202.53,117.68"/><path d="M202.55,120.79L202.55,121.05"/><path d="M206.98,135.69L207.17,135.28L207.23,134.81L207.22,132.74L207.25,132.19L207.35,131.57L207.51,130.92L207.73,130.30L207.98,129.75L208.25,129.29L246.44,74.82L246.71,74.50L246.96,74.33L247.18,74.34"/><path d="M226.25,76.70L226.09,76.51L225.83,75.80L225.84,75.44L225.84,75.84"/><path d="M225.85,75.38L225.84,75.44L225.82,72.33L225.94,72.89L226.08,73.18L226.26,73.45L226.61,73.82L227.05,74.16L227.76,74.53L228.37,74.75L229.02,74.89L229.92,74.98L230.61,74.96L231.29,74.88L232.15,74.66L232.91,74.33L233.55,73.90L234.02,73.42L234.22,73.13L234.35,72.84L234.43,72.55L234.46,72.33L234.49,75.03L234.55,75.20L234.51,75.95L234.17,76.65L233.58,77.26L232.75,77.77L231.74,78.12L231.49,78.16"/><path d="M226.53,70.86L226.27,71.26L226.17,71.53L226.11,71.81L226.11,72.08L226.14,72.36L226.22,72.63L226.35,72.89L226.72,73.38L227.25,73.81L227.92,74.16L228.48,74.36L229.09,74.49L229.94,74.57L230.79,74.54L231.21,74.48L232.01,74.27L232.73,73.97L233.04,73.78L233.57,73.34L233.94,72.85L234.07,72.58L234.14,72.31L234.18,72.03L234.16,71.76L234.11,71.49L234.00,71.22L233.74,70.80"/><path d="M225.82,72.33L225.83,72.01L225.89,71.72L226.00,71.43L226.15,71.16L226.53,70.71"/><path d="M226.69,77.19L226.50,77.00"/><path d="M227.56,77.74L227.38,77.66"/><path d="M232.90,72.35L232.72,72.72L232.54,72.93L232.33,73.13L231.79,73.45L231.48,73.58L230.79,73.75L230.05,73.80L229.31,73.72L228.65,73.54L228.35,73.40L227.85,73.06L227.65,72.86L227.50,72.64L227.38,72.39"/><path d="M228.58,78.10L228.34,78.05"/><path d="M229.31,78.24L229.67,78.28"/><path d="M230.54,78.29L230.91,78.25"/><path d="M234.46,72.33L234.45,71.96L234.39,71.67L234.28,71.39L234.12,71.11L233.73,70.66"/><path d="M234.49,75.98L234.49,75.03"/><path d="M234.51,75.95L234.49,75.91"/><path d="M243.80,79.48L246.44,75.70L246.59,75.53L246.72,75.44L246.85,75.44L246.94,75.53L247.00,75.71L247.02,75.96L247.04,78.02L246.97,78.49L246.78,78.91"/></g><g style="stroke:#000000;stroke-width:0.529"><path d="M233.73,70.51L247.18,74.34L247.35,74.50L247.46,74.83L247.50,75.28L247.51,77.34L247.45,77.82L247.26,78.23L246.78,78.91L246.46,79.24L246.06,79.47L245.56,79.59L245.00,79.59L243.79,79.48L208.26,130.18L207.97,130.73L207.76,131.42L207.71,131.76L207.71,134.13L207.64,134.60L207.45,135.02L206.98,135.69L206.66,136.02L206.25,136.26L205.75,136.38L205.19,136.38L163.13,132.38L110.44,117.38L108.12,116.83L105.82,116.50L76.29,113.69L75.18,113.70L74.18,113.94L73.35,114.41L73.05,114.73L72.82,115.22L72.69,116.17L72.72,119.65L72.65,120.09L72.44,120.46L71.97,121.13L71.64,121.41L71.20,121.56L70.70,121.60L70.15,121.50L66.65,120.51L66.31,120.92L66.03,121.10L65.78,121.10L64.73,120.80L64.53,120.61L64.41,120.25L64.37,119.73L64.18,92.02L64.25,91.54L64.48,91.14L104.76,33.67L105.13,33.37L105.60,33.20L106.16,33.16L106.76,33.27L110.70,34.39L110.70,35.27L110.58,35.45L147.63,46.00"/><path d="M68.79,92.56L68.69,93.05L68.95,92.32L68.86,92.29L68.79,92.56"/><path d="M115.68,90.54L104.01,87.22L102.73,86.72L101.70,86.02L100.98,85.17L100.68,84.35L100.69,84.15L101.12,83.23L119.36,57.22L145.60,59.71L145.70,60.12L145.84,60.44L146.03,60.76L146.26,61.07L146.54,61.36L146.86,61.63L147.61,62.12L148.03,62.32L148.96,62.65L149.96,62.87L150.48,62.94L151.55,62.97L152.08,62.94L153.07,62.79L153.61,62.66L154.55,62.33L155.04,62.08L169.10,66.09"/><path d="M122.90,92.60L194.57,112.99"/><path d="M226.51,68.45L154.85,48.05"/><path d="M185.80,70.84L218.16,80.05L219.44,80.56L220.47,81.25L221.18,82.10L221.49,82.92L221.48,83.12L221.04,84.04L202.09,111.09L201.46,111.74"/></g></g><g id="Actor_.2"><g style="stroke:#000000;stroke-width:0.176"><path d="M185.03,97.55L185.12,97.53L185.30,97.50L185.39,97.48L185.56,97.44L185.64,97.42L185.80,97.37L185.97,97.32L186.12,97.26L185.97,97.33L185.82,97.41L185.68,97.50L185.55,97.61L185.44,97.73L185.34,97.87L185.10,98.21L185.05,98.30"/><path d="M189.28,101.01L189.33,100.92L189.28,101.01L189.24,101.10L189.18,101.19L189.11,101.27L189.04,101.34L188.96,101.41L188.93,101.42L188.87,101.47L188.77,101.52L188.67,101.56L188.56,101.60L188.45,101.63L188.33,101.65L188.21,101.66L188.09,101.67L187.96,101.67L187.83,101.66L187.69,101.64L187.56,101.61L187.42,101.57L187.29,101.53L187.16,101.48L187.02,101.42L186.89,101.36L186.76,101.29L186.64,101.21L186.52,101.12L186.40,101.03L186.29,100.94L186.18,100.84L186.08,100.74L185.98,100.63L185.90,100.52L185.82,100.41L185.74,100.29L185.68,100.17L185.62,100.05L185.57,99.93L185.53,99.81L185.50,99.69L185.47,99.58L185.46,99.46L185.45,99.34L185.46,99.23L185.47,99.12L185.50,99.02L185.53,98.92L185.57,98.82L185.62,98.73L185.68,98.65L185.74,98.57L185.82,98.49L185.90,98.43L185.99,98.37L186.08,98.32L186.18,98.27L186.29,98.23L186.40,98.20L186.52,98.18L186.64,98.17L186.77,98.16L186.90,98.17L187.03,98.18L187.16,98.20L187.29,98.23L187.37,98.25L187.33,98.23"/><path d="M185.44,97.74L185.44,97.73L185.12,98.19"/><path d="M185.34,97.87L185.34,97.87"/><path d="M191.10,97.24L190.24,98.46L190.09,98.40L189.96,98.35L189.82,98.29L189.70,98.24L189.57,98.18L189.46,98.12L189.34,98.07L189.23,98.01L189.12,97.95L188.92,97.83L188.73,97.72L188.55,97.60L188.35,97.47L188.26,97.39L188.16,97.32L188.06,97.24L187.96,97.16L187.86,97.07L187.76,96.98L187.65,96.89L187.54,96.79L187.43,96.68L187.18,96.80L187.07,96.86L186.96,96.91L186.75,97.01L186.65,97.05L186.46,97.13L186.28,97.21L186.12,97.26L186.29,97.21L186.46,97.18L186.66,97.15L186.86,97.14L187.06,97.15L187.27,97.17L187.49,97.21L187.70,97.26L187.91,97.33L188.13,97.41L188.34,97.50L188.54,97.61L188.73,97.72L188.91,97.84L189.10,97.98L189.28,98.13L189.44,98.29L189.60,98.46L189.75,98.64L189.88,98.82L189.99,99.00L190.10,99.19L190.18,99.38L190.25,99.57L190.31,99.76L190.34,99.93L190.36,100.12L190.36,100.30L190.35,100.47L190.32,100.64L190.27,100.80L190.20,100.95L190.12,101.09L189.86,101.47L189.84,101.49"/><path d="M187.37,98.25L187.41,98.26L187.41,98.26"/><path d="M189.05,99.45L188.96,99.32L188.88,99.22L188.78,99.11L188.68,99.00L188.57,98.90L188.45,98.80L188.34,98.71L188.21,98.63L188.08,98.55L187.95,98.48L187.82,98.41L187.69,98.35L187.56,98.31L187.41,98.26"/><path d="M187.43,96.68L188.28,95.46"/><path d="M189.04,99.43L189.11,99.55L189.18,99.66L189.24,99.78L189.29,99.90L189.33,100.02L189.36,100.14L189.38,100.26L189.39,100.38L189.40,100.49L189.39,100.60L189.38,100.71L189.36,100.80L189.36,100.82L189.33,100.92"/><path d="M190.65,101.11L190.58,100.93L190.55,100.83L190.50,100.65L190.47,100.56L190.45,100.47L190.41,100.30L190.37,100.12L190.34,99.93L190.32,99.76L190.29,99.56L190.28,99.45L190.27,99.24L190.25,99.00L190.25,98.88L190.24,98.74L190.24,98.46"/></g><g style="stroke:#000000;stroke-width:0.529"><path d="M184.90,99.60L184.93,99.74L184.98,99.89L185.04,100.03L185.10,100.17L185.19,100.33L185.27,100.47L185.36,100.61L185.45,100.74L185.56,100.87L185.67,101.00L185.79,101.12L185.92,101.24L186.05,101.35L186.19,101.46L186.33,101.56L186.47,101.66L186.62,101.74L186.77,101.83L186.93,101.90L187.09,101.97L187.24,102.03L187.40,102.08L187.56,102.12L187.72,102.15L187.88,102.18L188.06,102.20L188.21,102.21L188.36,102.21L188.51,102.20L188.66,102.18L188.80,102.15L188.96,102.11L189.09,102.06L189.22,102.01L189.33,101.95L189.47,101.86L189.58,101.78L189.67,101.69L189.78,101.57L189.84,101.49L189.97,101.44L190.17,101.34L190.40,101.23L190.65,101.11L191.51,99.89L191.50,99.60L191.50,99.47L191.49,99.22L191.48,99.11L191.46,98.89L191.45,98.79L191.43,98.59L191.41,98.41L191.38,98.24L191.34,98.06L191.32,97.97L191.30,97.88L191.25,97.71L191.20,97.52L191.17,97.43L191.10,97.24L190.98,97.13L190.88,97.04L190.77,96.94L190.67,96.85L190.57,96.76L190.47,96.68L190.37,96.60L190.27,96.53L190.17,96.46L189.98,96.32L189.80,96.20L189.61,96.09L189.40,95.97L189.29,95.91L189.19,95.85L189.07,95.80L188.95,95.74L188.83,95.68L188.70,95.63L188.57,95.57L188.43,95.52L188.29,95.46L188.10,95.49L188.01,95.51L187.84,95.55L187.76,95.57L187.59,95.61L187.51,95.64L187.35,95.69L187.19,95.74L187.03,95.80L186.85,95.87L186.67,95.95L186.47,96.04L186.25,96.15L186.13,96.20L185.88,96.33L185.03,97.55L185.03,97.69L185.04,97.97L185.04,98.09L185.05,98.30L185.02,98.36L184.97,98.47L184.92,98.59L184.89,98.72L184.88,98.75L184.86,98.88L184.85,99.01L184.84,99.15L184.85,99.29L184.87,99.46L184.90,99.60"/></g></g><g id="Actor_.3"><g style="stroke:#000000;stroke-width:0.176"><path d="M148.09,82.74L148.33,82.43L148.65,82.19L149.05,82.02L149.50,81.95L150.00,81.96L150.51,82.07L190.21,93.37L190.73,93.56L191.22,93.82L191.68,94.16L192.08,94.55L192.41,94.98L192.65,95.43L192.80,95.89L192.86,96.33L192.91,104.12L192.89,104.42L192.84,104.76L192.75,105.11L192.63,105.45L192.49,105.76L192.35,106.01L188.63,111.31"/><path d="M158.26,102.66L158.99,101.61L159.28,101.30L159.65,101.02L160.10,100.80L160.60,100.64L161.15,100.54L161.72,100.51L162.27,100.56L162.81,100.67L173.33,103.66L173.82,103.84L174.24,104.08L174.59,104.37L174.84,104.69L174.99,105.04L175.02,105.40L174.95,105.76L174.94,105.79"/></g><g style="stroke:#000000;stroke-width:0.529"><path d="M189.15,111.46L192.35,106.89L192.58,106.51L192.80,106.05L193.00,105.53L193.16,105.00L193.29,104.44L193.36,103.91L193.39,103.44L193.33,95.66L193.28,95.21L193.13,94.75L192.88,94.30L192.55,93.87L192.15,93.48L191.69,93.15L191.20,92.88L190.69,92.69L190.48,92.64L150.98,81.39L150.47,81.29L149.98,81.27L149.52,81.35L149.13,81.51L148.80,81.75L148.56,82.07L148.09,82.74L147.94,83.11L147.89,83.53L147.95,91.32L147.93,91.62L147.87,91.96L147.79,92.31L147.67,92.65L147.53,92.96L147.38,93.21L143.66,98.51"/><path d="M174.03,107.15L174.77,106.10L174.93,105.79L174.84,105.57L174.59,105.25L174.25,104.97L173.82,104.73L173.33,104.55L172.60,104.34L162.82,101.56L162.28,101.44L161.72,101.40L161.15,101.42L160.61,101.52L160.10,101.68L159.65,101.91L159.28,102.18L159.00,102.50L158.78,102.81"/></g></g><g id="Actor_.4"><g style="stroke:#000000;stroke-width:0.176"><path d="M185.81,99.22L185.94,99.04L186.12,98.90L186.34,98.81L186.59,98.75L186.86,98.75L187.15,98.79L187.44,98.88L187.72,99.01L187.99,99.18L188.24,99.38L188.45,99.61L188.62,99.86L188.75,100.12L188.82,100.37L188.84,100.62L188.81,100.86L188.73,101.07"/><path d="M186.34,100.96L186.17,100.77L186.03,100.57L185.93,100.36L185.87,100.15L185.85,99.94L185.88,99.75L185.94,99.58L186.05,99.44L186.20,99.32L186.38,99.24L186.58,99.20L186.80,99.19L187.04,99.23L187.28,99.30L187.51,99.41L187.73,99.55L187.93,99.71L188.10,99.90L188.24,100.10L188.34,100.31L188.40,100.52L188.42,100.72L188.40,100.91L188.33,101.08L188.22,101.23L188.07,101.35L187.89,101.43L187.69,101.47L187.47,101.47L187.23,101.44L187.00,101.37L186.76,101.26"/><path d="M186.81,101.28L186.80,101.28"/></g><g style="stroke:#000000;stroke-width:0.529"><path d="M185.97,98.99L185.81,99.22L185.72,99.43L185.69,99.67L185.71,99.92L185.79,100.18L185.91,100.43L186.08,100.68L186.30,100.91L186.34,100.96L186.54,101.12L186.76,101.26L186.81,101.28L187.10,101.41L187.39,101.50L187.67,101.54L187.95,101.54L188.20,101.49L188.42,101.39L188.59,101.25L188.73,101.07L188.89,100.84"/></g></g><g id="Actor_.5"><g style="stroke:#000000;stroke-width:0.176"><path d="M149.53,90.48L149.36,90.29L149.22,90.09L149.12,89.88L149.06,89.67L149.04,89.46L149.06,89.27L149.13,89.10L149.24,88.96L149.39,88.84L149.57,88.76L149.77,88.72L149.99,88.71L150.23,88.75L150.46,88.82L150.70,88.93L150.92,89.07L151.11,89.23L151.29,89.42L151.43,89.62L151.53,89.83L151.59,90.04L151.61,90.24L151.58,90.43L151.51,90.61L151.41,90.75L151.26,90.87L151.08,90.95L150.88,90.99L150.66,90.99L150.42,90.96L150.18,90.89L149.95,90.78"/><path d="M148.99,88.74L149.13,88.57L149.31,88.42L149.52,88.33L149.77,88.27L150.05,88.27L150.33,88.31L150.63,88.40L150.83,88.49L150.91,88.53L151.18,88.70L151.43,88.90L151.64,89.13L151.81,89.38L151.93,89.64L152.01,89.89L152.03,90.14L152.00,90.38L151.92,90.59"/><path d="M150.00,90.80L149.99,90.80"/></g><g style="stroke:#000000;stroke-width:0.529"><path d="M149.16,88.51L148.99,88.74L148.91,88.95L148.88,89.19L148.90,89.44L148.97,89.70L149.10,89.95L149.27,90.20L149.48,90.43L149.53,90.48L149.73,90.64L149.95,90.78L150.00,90.80L150.28,90.93L150.57,91.02L150.86,91.06L151.13,91.06L151.38,91.01L151.60,90.91L151.78,90.77L151.92,90.59L152.07,90.36"/></g></g><g id="Actor_.6"><g style="stroke:#000000;stroke-width:0.176"><path d="M102.47,81.31L102.37,81.53L102.20,81.96L102.05,82.41L101.92,82.87L101.81,83.33L101.72,83.78L101.66,84.22L101.62,84.63L101.61,84.88L101.61,85.02L101.63,85.36L101.67,85.66L101.74,85.91L101.83,86.11"/><path d="M102.16,86.33L102.23,86.34"/><path d="M103.59,79.71L103.69,79.65L103.86,79.60L104.01,79.62L104.12,79.68"/></g><g style="stroke:#000000;stroke-width:0.529"><path d="M103.09,86.86L103.20,86.70L103.25,86.63"/><path d="M104.71,78.11L104.75,78.16L104.79,78.22L104.88,78.38L104.95,78.56L104.97,78.63L105.03,78.84L105.08,79.07L105.11,79.33L105.13,79.62L105.14,79.92L105.14,79.97"/></g></g><g id="Actor_.7"><g style="stroke:#000000;stroke-width:0.176"><path d="M226.50,67.18L226.53,67.41L226.58,67.63L226.68,67.84L226.80,68.05L226.95,68.25L227.13,68.44L227.35,68.62L227.58,68.78L227.84,68.93L228.12,69.06L228.42,69.17L228.74,69.26L229.07,69.34L229.41,69.39L229.75,69.42L230.10,69.43L230.45,69.42L230.79,69.38L231.13,69.33L231.46,69.26L231.77,69.16L232.07,69.05L232.36,68.91L232.62,68.77L232.86,68.60L233.07,68.42L233.25,68.23L233.41,68.03L233.53,67.82L233.62,67.61L233.68,67.39L233.71,67.17"/><path d="M233.30,65.76L233.01,65.74L232.85,65.73L232.68,65.73L232.54,65.74L232.40,65.75L232.27,65.76L232.14,65.77L232.03,65.79L231.91,65.81L231.80,65.83L231.69,65.85L231.58,65.88L231.48,65.91L231.38,65.95L231.27,65.98L231.17,66.03L231.07,66.07L230.96,66.12L230.86,66.17L230.75,66.23L230.64,66.29L230.52,66.36L230.41,66.43L230.28,66.51L230.15,66.60L230.01,66.70L229.87,66.80L229.70,66.93L229.54,67.06L229.25,67.29L229.27,69.18L226.90,66.59L226.90,66.08"/><path d="M226.89,64.70L227.05,64.76L227.15,64.80L227.24,64.84L227.33,64.88L227.41,64.93L227.49,64.97L227.56,65.02L227.63,65.07L227.69,65.11L227.76,65.17L227.82,65.22L227.94,65.33L228.07,65.46L228.19,65.60L228.31,65.75L228.44,65.93L228.58,66.14L228.73,66.37L228.90,66.65L229.09,66.99L229.25,67.29"/><path d="M230.96,73.13L231.15,73.09L231.48,73.02L231.80,72.92L232.10,72.81L232.38,72.68L232.55,72.58L232.53,72.61L232.45,72.69L232.37,72.77L232.28,72.84L232.19,72.91L232.10,72.98L232.02,73.02L231.92,73.09L231.81,73.14L231.69,73.20L231.58,73.25L231.46,73.30L231.33,73.34L231.24,73.37L231.11,73.41L230.97,73.44L230.84,73.47L230.71,73.49L230.57,73.51L230.43,73.52L230.33,73.53L230.19,73.54L230.05,73.54L229.91,73.54L229.85,73.54L229.77,73.53L229.64,73.52L229.50,73.51L229.40,73.49L229.27,73.47L229.14,73.44L229.01,73.41L228.88,73.38L228.76,73.34L228.64,73.29L228.56,73.26L228.45,73.21L228.34,73.16L228.23,73.10L228.14,73.04L228.04,72.98L227.96,72.92L227.89,72.86L227.82,72.79L227.74,72.72L227.67,72.64L227.61,72.57L227.59,72.53L227.61,72.54L227.87,72.69L228.15,72.82L228.45,72.93L228.78,73.03L228.86,73.05L228.95,73.08L229.08,73.11L229.17,73.13L229.34,73.17L229.48,73.19L229.61,73.20L229.76,73.21L229.86,73.22L230.00,73.22L230.14,73.22L230.28,73.22L230.38,73.21L230.56,73.19L230.70,73.17L230.80,73.16L230.96,73.13L230.82,73.15L230.47,73.18L230.12,73.19L229.78,73.18L229.43,73.15L229.09,73.10L228.78,73.03"/><path d="M227.59,72.53L227.53,72.49L227.56,72.54L227.61,72.62L227.67,72.69L227.73,72.76L227.81,72.84L227.86,72.89L227.94,72.96L228.03,73.03L228.11,73.08L228.22,73.15L228.32,73.21L228.43,73.26L228.51,73.30L228.62,73.35L228.74,73.39L228.87,73.43L228.99,73.47L229.08,73.49L229.25,73.53L229.34,73.54L229.47,73.56L229.61,73.58L229.77,73.59L229.89,73.60L230.03,73.60L230.17,73.60L230.26,73.60L230.41,73.59L230.54,73.57L230.64,73.56L230.82,73.53L230.95,73.50L231.08,73.47L231.17,73.45L231.30,73.41L231.43,73.37L231.55,73.32L231.67,73.27L231.78,73.22L231.89,73.16L231.97,73.12L232.07,73.05L232.17,72.98L232.26,72.91L232.34,72.85L232.43,72.77L232.51,72.69L232.56,72.63L232.63,72.54L232.55,72.58"/><path d="M227.53,72.49L227.41,72.40"/><path d="M228.72,63.48L228.53,63.58L228.37,63.69L228.22,63.80L228.09,63.93L227.98,64.06L227.89,64.21L227.82,64.35L227.78,64.50L227.76,64.65L227.77,64.80L227.80,64.95L227.80,64.97L227.85,65.10L227.92,65.24"/><path d="M228.25,72.86L228.36,72.92L228.47,72.97L228.58,73.02L228.70,73.06L228.79,73.09L228.93,73.13L229.04,73.17L229.17,73.20L229.30,73.22L229.44,73.24L229.57,73.26L229.67,73.27L229.82,73.28L229.95,73.28L230.09,73.28L230.23,73.28L230.37,73.27L230.51,73.26L230.61,73.25L230.75,73.23L230.89,73.20L231.02,73.17L231.15,73.14L231.28,73.10L231.41,73.06L231.50,73.03L231.61,72.98"/><path d="M228.14,65.51L228.28,65.63L228.44,65.74L228.61,65.84L228.80,65.93L229.01,66.01L229.22,66.07L229.36,66.10L229.44,66.12L229.67,66.15L229.91,66.17L230.14,66.18L230.38,66.16L230.61,66.14L230.84,66.09"/><path d="M229.27,69.18L233.32,67.64L233.30,66.04"/><path d="M228.80,64.74L228.81,64.83L228.86,64.96L228.94,65.08L229.06,65.19L229.20,65.29L229.36,65.37L229.54,65.44L229.74,65.49L229.94,65.51L230.15,65.51L230.36,65.50L230.52,65.47L230.56,65.46L230.75,65.40L230.92,65.32L231.07,65.23L231.19,65.12L231.29,65.00L231.35,64.87L231.38,64.74L231.38,64.61L231.35,64.47L231.28,64.35L231.18,64.23L231.06,64.12L230.91,64.03L230.73,63.96L230.54,63.90L230.34,63.87L230.14,63.85L229.93,63.86L229.72,63.89L229.53,63.94L229.35,64.00L229.19,64.09L229.05,64.19L228.94,64.31L228.86,64.43L228.81,64.56L228.79,64.69L228.80,64.74L228.81,64.65L228.86,64.52L228.94,64.39L229.05,64.28L229.19,64.18L229.35,64.09L229.36,64.09L229.53,64.02L229.72,63.98L229.93,63.95L230.14,63.94L230.34,63.96L230.54,63.99L230.73,64.05L230.91,64.12L231.06,64.21L231.18,64.32L231.28,64.44L231.35,64.56L231.38,64.70L231.38,64.74"/><path d="M229.34,63.27L229.57,63.23L229.80,63.20L230.04,63.19L230.27,63.19L230.51,63.21L230.74,63.25L230.96,63.30L231.17,63.36L231.38,63.43L231.57,63.52L231.74,63.62L231.90,63.74L232.04,63.86"/><path d="M230.03,64.56L230.00,64.56L229.92,64.58L229.84,64.62L229.79,64.66L229.76,64.72L229.74,64.77L229.76,64.83L229.79,64.89L229.85,64.93L229.92,64.97L230.00,64.99L230.09,64.99L230.18,64.99L230.27,64.96L230.34,64.93L230.39,64.88L230.42,64.83L230.44,64.77L230.42,64.71L230.39,64.66L230.33,64.61L230.26,64.58L230.18,64.56L230.09,64.55L230.03,64.56"/><path d="M232.26,64.12L232.33,64.27L232.38,64.41L232.41,64.56L232.42,64.72L232.40,64.87L232.36,65.02L232.29,65.16L232.20,65.30L232.09,65.44L231.96,65.56L231.81,65.68L231.65,65.79L231.46,65.88"/><path d="M232.63,72.54L232.83,72.40L232.82,72.45L232.79,72.51L232.75,72.59L232.70,72.68L232.64,72.77L232.58,72.85L232.51,72.93L232.46,72.99"/><path d="M232.83,72.40L232.88,72.37"/></g><g style="stroke:#000000;stroke-width:0.529"><path d="M233.30,66.04L233.30,65.76L233.14,65.46L232.94,65.11L232.85,64.96L232.70,64.71L232.55,64.49L232.49,64.39L232.36,64.22L232.24,64.06L232.11,63.93L232.05,63.86L231.93,63.74L231.87,63.69L231.81,63.63L231.74,63.58L231.68,63.53L231.61,63.48L231.53,63.44L231.46,63.39L231.38,63.35L231.29,63.31L231.20,63.27L231.10,63.23L230.93,63.17L230.65,63.15L230.48,63.15L230.32,63.15L230.18,63.15L230.03,63.16L229.90,63.17L229.78,63.18L229.66,63.20L229.54,63.22L229.43,63.24L229.32,63.27L229.22,63.30L229.11,63.33L229.01,63.36L228.91,63.40L228.80,63.44L228.70,63.48L228.59,63.53L228.49,63.58L228.38,63.64L228.27,63.70L228.15,63.77L228.04,63.84L227.91,63.93L227.78,64.01L227.64,64.11L227.50,64.22L227.33,64.34L227.17,64.47L226.89,64.70L226.90,66.08L226.88,66.10L226.74,66.31L226.63,66.52L226.55,66.74L226.51,66.96L226.50,67.18L226.53,70.95L226.55,71.17L226.61,71.39L226.70,71.60L226.82,71.81L226.98,72.01L227.16,72.20L227.37,72.38L227.41,72.40"/><path d="M232.88,72.37L233.09,72.19L233.28,72.00L233.43,71.80L233.56,71.59L233.65,71.37L233.71,71.15L233.74,70.93L233.71,67.17L233.70,66.94L233.66,66.72L233.59,66.50L233.48,66.29L233.34,66.09L233.30,66.04"/></g></g><g id="Actor_.8"><g style="stroke:#000000;stroke-width:0.176"><path d="M200.20,135.91L200.00,135.98L199.60,136.08L199.20,136.16L198.78,136.21L198.35,136.23L197.93,136.22L197.51,136.18L197.10,136.11L196.70,136.01L196.33,135.89L195.97,135.74L195.64,135.57L195.48,135.46"/></g><g style="stroke:#000000;stroke-width:0.529"><path d="M201.48,136.03L201.33,136.15L201.05,136.35L200.72,136.53L200.38,136.69L200.00,136.82L199.61,136.92L199.20,137.00L198.78,137.05L198.36,137.07L197.93,137.06L197.51,137.02L197.10,136.95L196.70,136.85L196.33,136.73L195.98,136.58L195.65,136.41L195.36,136.21L195.10,136.00L194.87,135.77L194.69,135.52L194.61,135.37"/></g></g><g id="Actor_.9"><g style="stroke:#000000;stroke-width:0.176"><path d="M145.91,105.19L145.85,105.21L145.51,105.35L145.14,105.46L144.76,105.53L144.36,105.56L143.96,105.56L143.87,105.56L143.56,105.53L143.17,105.46L142.80,105.35L142.46,105.22L142.45,105.21"/><path d="M142.78,101.70L144.32,102.14L144.61,102.01L145.69,101.50L145.52,100.42L143.98,99.98L143.06,100.41L142.61,100.62L142.78,101.70"/><path d="M143.01,101.77L143.99,101.31L143.98,99.98"/><path d="M145.30,101.69L143.99,101.31"/><path d="M145.53,101.58L145.52,100.42"/></g><g style="stroke:#000000;stroke-width:0.529"><path d="M142.45,105.21L142.16,105.05L141.89,104.86L141.67,104.65L141.49,104.42L141.39,104.22L141.37,104.17L141.30,103.92L141.29,103.66L141.27,101.15L141.29,100.97L141.30,100.94L141.35,100.76L141.42,100.58L141.44,100.56L141.54,100.39L141.67,100.23L141.82,100.08L142.02,99.92L142.21,99.79L142.42,99.67L142.65,99.57L142.89,99.48L143.15,99.41L143.41,99.35L143.68,99.31L143.96,99.29L144.24,99.29L144.51,99.30L144.79,99.33L145.06,99.38L145.31,99.44L145.56,99.52L145.80,99.62L146.01,99.73L146.21,99.85L146.42,100.00L146.58,100.15L146.71,100.31L146.83,100.47L146.84,100.50L146.93,100.67L146.99,100.85L147.03,101.06L147.03,101.24L147.05,103.65L147.04,103.91L146.96,104.16L146.84,104.41L146.66,104.64L146.43,104.86L146.16,105.05L145.91,105.19"/></g></g><g id="Actor_.10"><g style="stroke:#000000;stroke-width:0.176"><path d="M146.79,61.78L146.95,61.96L147.23,62.21L147.54,62.45L147.89,62.67L148.27,62.86L148.68,63.03L149.11,63.18L149.21,63.20L149.56,63.29L150.02,63.38L150.50,63.45L150.98,63.48L151.47,63.49L151.95,63.46L152.43,63.41L152.64,63.37L152.90,63.32L153.36,63.21L153.80,63.08L154.00,63.00L154.21,62.91L154.61,62.73L154.97,62.52L155.30,62.29L155.41,62.19"/><path d="M147.45,65.60L147.46,65.87L147.51,66.14L147.60,66.41L147.74,66.66L147.92,66.91L148.14,67.14L148.41,67.35L148.70,67.55L148.93,67.67L149.03,67.72L149.38,67.87L149.76,67.99L150.15,68.09L150.56,68.16L150.98,68.20L151.41,68.21L151.83,68.19L152.25,68.14L152.66,68.06L153.05,67.96L153.42,67.83L153.77,67.67L153.94,67.58L154.09,67.49L154.38,67.29L154.64,67.07L154.85,66.84L155.03,66.59L155.16,66.33L155.25,66.06L155.29,65.79"/><path d="M147.46,66.44L147.46,66.43"/><path d="M147.49,65.34L147.50,65.39L147.60,65.65L147.73,65.91L147.92,66.16L148.14,66.39L148.40,66.60L148.70,66.79L149.02,66.97L149.38,67.12L149.75,67.24L150.11,67.33L150.15,67.34L150.56,67.41L150.98,67.44L151.40,67.46L151.83,67.44L152.25,67.39L152.65,67.31L153.05,67.21L153.42,67.07L153.77,66.92L154.09,66.74L154.38,66.54L154.63,66.32L154.85,66.08L155.02,65.83L155.15,65.57L155.24,65.31L155.24,65.30"/><path d="M155.27,62.99L155.16,63.12L155.01,63.29L154.87,63.44L154.72,63.59L154.58,63.73L154.43,63.87L154.27,64.00L154.11,64.13L153.95,64.25L153.78,64.37L153.61,64.48L153.27,64.60L153.08,64.63L152.77,64.68L152.48,64.72L152.21,64.74L151.93,64.76L151.65,64.77L151.38,64.78L151.11,64.77L150.83,64.76L150.55,64.74L150.26,64.71L149.99,64.67L149.69,64.62L149.38,64.56L149.05,64.49L148.73,64.36L148.66,64.31L148.52,64.19L148.38,64.06L148.25,63.93L148.11,63.80L147.99,63.66L147.86,63.52L147.74,63.37L147.62,63.21L147.49,63.04L147.43,62.96"/></g><g style="stroke:#000000;stroke-width:0.529"><path d="M155.80,62.30L155.63,62.53L155.47,62.74L155.32,62.93L155.27,62.99L155.28,65.04L155.24,65.30L155.28,65.52L155.29,65.79L155.29,66.63L155.25,66.90L155.16,67.17L155.03,67.43L154.86,67.68L154.64,67.91L154.39,68.13L154.10,68.33L153.78,68.51L153.43,68.67L153.06,68.80L152.66,68.90L152.26,68.98L151.84,69.03L151.41,69.05L150.99,69.04L150.57,69.00L150.16,68.93L149.76,68.83L149.39,68.71L149.03,68.56L148.71,68.39L148.41,68.19L148.15,67.98L147.93,67.75L147.75,67.50L147.61,67.25L147.51,66.98L147.46,66.71L147.46,66.44L147.45,65.60L147.49,65.34L147.45,65.12L147.45,64.85L147.43,62.96L147.35,62.85L147.22,62.65L147.08,62.44L146.93,62.21L146.79,61.97L146.79,61.78"/><path d="M146.40,61.21L146.51,61.41L146.71,61.69L146.79,61.78"/></g></g><g id="Actor_.11"><g style="stroke:#000000;stroke-width:0.176"><path d="M147.62,44.71L147.64,44.94L147.70,45.16L147.79,45.37L147.91,45.58L148.06,45.78L148.24,45.97L148.45,46.15L148.68,46.31L148.94,46.46L149.22,46.59L149.52,46.71L149.84,46.80L150.16,46.88L150.50,46.93L150.84,46.96L151.19,46.97L151.54,46.96L151.89,46.93L152.22,46.88L152.55,46.80L152.87,46.71L153.17,46.60L153.46,46.47L153.72,46.32L153.96,46.16L154.17,45.98L154.36,45.79L154.52,45.59L154.64,45.38L154.74,45.17L154.80,44.95L154.83,44.72"/><path d="M154.41,43.31L154.13,43.29L153.96,43.29L153.79,43.29L153.65,43.29L153.51,43.30L153.38,43.31L153.25,43.32L153.13,43.34L153.02,43.36L152.91,43.38L152.80,43.40L152.69,43.43L152.58,43.46L152.48,43.50L152.38,43.53L152.28,43.57L152.17,43.62L152.07,43.67L151.96,43.72L151.85,43.77L151.74,43.83L151.62,43.90L151.51,43.97L151.38,44.06L151.25,44.14L151.11,44.24L150.97,44.35L150.80,44.47L150.64,44.60L150.35,44.83L150.36,46.72L148.02,44.12L148.02,43.62"/><path d="M150.35,44.83L150.19,44.53L150.00,44.19L149.83,43.91L149.68,43.67L149.54,43.47L149.42,43.29L149.29,43.13L149.18,43.00L149.06,42.87L148.93,42.76L148.87,42.70L148.81,42.65L148.74,42.60L148.67,42.55L148.60,42.51L148.52,42.46L148.45,42.42L148.36,42.37L148.27,42.33L148.17,42.29L148.01,42.24"/><path d="M152.07,50.67L152.25,50.64L152.58,50.57L152.90,50.47L153.20,50.36L153.48,50.23L153.66,50.13L153.63,50.16L153.56,50.24L153.48,50.32L153.39,50.39L153.30,50.46L153.20,50.53L153.13,50.57L153.02,50.64L152.91,50.69L152.80,50.75L152.75,50.77L152.68,50.80L152.56,50.85L152.38,50.91L152.21,50.95L152.08,50.99L151.94,51.01L151.81,51.04L151.67,51.06L151.53,51.07L151.43,51.08L151.29,51.08L151.15,51.09L151.01,51.08L150.87,51.08L150.74,51.06L150.57,51.04L150.51,51.04L150.37,51.01L150.24,50.98L150.11,50.95L149.99,50.92L149.86,50.88L149.74,50.83L149.66,50.80L149.55,50.75L149.44,50.70L149.34,50.64L149.24,50.58L149.15,50.51L149.07,50.45L149.00,50.40L148.92,50.33L148.85,50.25L148.78,50.18L148.72,50.10L148.71,50.07L148.97,50.22L149.25,50.36L149.55,50.47L149.86,50.56L149.90,50.57L150.05,50.62L150.18,50.65L150.27,50.67L150.45,50.71L150.58,50.73L150.71,50.74L150.86,50.76L150.96,50.76L151.10,50.77L151.24,50.77L151.38,50.76L151.48,50.76L151.66,50.74L151.80,50.72L151.90,50.70L152.07,50.67L151.91,50.69L151.57,50.73L151.22,50.74L150.87,50.73L150.53,50.69L150.19,50.64L149.90,50.57"/><path d="M148.71,50.07L148.65,50.03L148.67,50.07L148.72,50.15L148.78,50.23L148.84,50.30L148.92,50.38L148.97,50.43L149.05,50.50L149.14,50.57L149.22,50.62L149.33,50.69L149.43,50.75L149.53,50.80L149.61,50.84L149.76,50.90L149.85,50.93L149.97,50.97L150.09,51.01L150.22,51.04L150.35,51.07L150.44,51.09L150.57,51.11L150.71,51.12L150.85,51.14L150.99,51.14L151.13,51.15L151.27,51.14L151.35,51.14L151.51,51.13L151.64,51.12L151.78,51.10L151.92,51.08L152.05,51.05L152.18,51.02L152.28,51.00L152.41,50.96L152.53,50.92L152.65,50.87L152.77,50.82L152.87,50.77L153.00,50.71L153.07,50.67L153.18,50.60L153.28,50.54L153.38,50.46L153.46,50.39L153.54,50.32L153.62,50.24L153.67,50.19L153.73,50.10L153.75,50.08L153.66,50.13"/><path d="M148.53,49.95L148.65,50.03"/><path d="M149.25,43.05L149.39,43.17L149.54,43.28L149.72,43.38L149.91,43.47L150.11,43.55L150.32,43.61L150.55,43.66L150.78,43.70L151.01,43.72L151.24,43.72L151.48,43.71L151.71,43.68L151.94,43.64"/><path d="M149.04,42.78L148.96,42.63L148.91,42.49L148.88,42.34L148.88,42.19L148.90,42.04L148.94,41.89L149.01,41.74L149.10,41.60L149.21,41.47L149.34,41.34L149.49,41.22L149.66,41.12L149.84,41.02"/><path d="M152.72,50.53L152.56,50.59L152.38,50.65L152.25,50.69L152.13,50.72L151.99,50.75L151.85,50.77L151.71,50.79L151.61,50.81L151.48,50.82L151.33,50.83L151.19,50.83L151.05,50.83L150.91,50.82L150.77,50.81L150.68,50.80L150.54,50.78L150.41,50.76L150.28,50.74L150.14,50.71L150.02,50.67L149.89,50.63L149.80,50.60L149.69,50.56L149.57,50.51L149.46,50.45L149.36,50.40"/><path d="M149.91,42.28L149.91,42.23L149.93,42.10L149.98,41.97L150.06,41.85L150.17,41.73L150.31,41.63L150.47,41.55L150.65,41.48L150.83,41.43L150.85,41.43L151.05,41.40L151.26,41.40L151.47,41.41L151.67,41.45L151.86,41.51L152.03,41.58L152.18,41.67L152.30,41.78L152.40,41.90L152.47,42.02L152.50,42.16L152.50,42.24L152.47,42.11L152.40,41.99L152.30,41.87L152.18,41.76L152.03,41.67L151.86,41.59L151.67,41.54L151.47,41.50L151.26,41.49L151.05,41.49L150.85,41.52L150.65,41.57L150.47,41.63L150.31,41.72L150.17,41.82L150.06,41.93L149.98,42.06L149.93,42.19L149.91,42.28L149.93,42.37L149.98,42.50L150.05,42.62L150.17,42.73L150.31,42.83L150.47,42.92L150.65,42.98L150.84,43.03L151.05,43.05L151.26,43.06L151.47,43.04L151.67,43.00L151.85,42.95L152.03,42.87L152.18,42.78L152.30,42.67L152.40,42.55L152.47,42.42L152.50,42.29L152.50,42.24"/><path d="M150.36,46.72L154.43,45.20L154.42,43.58"/><path d="M153.16,41.41L153.02,41.29L152.87,41.17L152.69,41.07L152.51,40.98L152.30,40.91L152.09,40.84L151.87,40.79L151.64,40.76L151.40,40.74L151.17,40.74L150.93,40.75L150.83,40.76L150.70,40.77L150.47,40.81"/><path d="M151.54,42.26L151.51,42.20L151.45,42.16L151.38,42.12L151.30,42.10L151.21,42.09L151.12,42.10L151.03,42.12L150.96,42.16L150.91,42.21L150.87,42.26L150.86,42.32L150.87,42.38L150.91,42.43L150.96,42.48L151.03,42.51L151.12,42.53L151.21,42.54L151.30,42.53L151.38,42.51L151.45,42.47L151.51,42.43L151.54,42.37L151.55,42.32L151.54,42.26"/><path d="M153.38,41.68L153.45,41.82L153.50,41.97L153.53,42.12L153.53,42.27L153.51,42.42L153.47,42.57L153.40,42.71L153.36,42.78L153.31,42.85L153.20,42.99L153.07,43.11L152.92,43.23L152.75,43.34L152.57,43.43"/><path d="M153.75,50.08L153.95,49.95L153.93,50.00L153.90,50.06L153.86,50.15L153.81,50.24L153.75,50.32L153.69,50.40L153.62,50.48L153.58,50.53"/><path d="M153.95,49.95L154.00,49.91"/></g><g style="stroke:#000000;stroke-width:0.529"><path d="M154.42,43.58L154.41,43.31L154.25,43.01L154.06,42.67L153.97,42.52L153.81,42.26L153.67,42.04L153.61,41.95L153.48,41.77L153.36,41.62L153.24,41.48L153.16,41.40L153.06,41.29L153.00,41.24L152.94,41.18L152.87,41.13L152.80,41.08L152.73,41.03L152.66,40.99L152.59,40.94L152.51,40.90L152.42,40.86L152.33,40.82L152.23,40.77L152.07,40.72L151.78,40.70L151.62,40.70L151.45,40.69L151.31,40.70L151.16,40.70L151.04,40.71L150.91,40.73L150.79,40.74L150.67,40.76L150.56,40.79L150.45,40.81L150.35,40.84L150.24,40.87L150.14,40.90L150.03,40.94L149.93,40.98L149.83,41.02L149.72,41.07L149.62,41.12L149.51,41.18L149.40,41.24L149.28,41.31L149.16,41.38L149.04,41.46L148.91,41.55L148.77,41.65L148.62,41.75L148.46,41.88L148.29,42.00L148.01,42.24L148.02,43.62L148.01,43.63L147.86,43.84L147.75,44.05L147.68,44.27L147.63,44.49L147.62,44.71L147.64,48.48L147.67,48.70L147.72,48.92L147.81,49.14L147.93,49.34L148.08,49.54L148.27,49.73L148.47,49.91L148.53,49.95"/><path d="M154.00,49.91L154.20,49.74L154.39,49.55L154.54,49.35L154.67,49.15L154.76,48.93L154.82,48.71L154.85,48.49L154.83,44.72L154.82,44.50L154.78,44.28L154.71,44.06L154.60,43.85L154.47,43.64L154.42,43.58"/></g></g><g id="Actor_.12"><g style="stroke:#000000;stroke-width:0.176"><path d="M115.68,90.29L115.70,90.51L115.76,90.73L115.85,90.95L115.98,91.16L116.13,91.36L116.31,91.55L116.52,91.72L116.76,91.89L117.02,92.03L117.30,92.17L117.60,92.28L117.92,92.37L118.24,92.44L118.58,92.50L118.93,92.53L119.28,92.54L119.62,92.53L119.97,92.49L120.31,92.44L120.64,92.36L120.95,92.27L121.25,92.16L121.53,92.02L121.80,91.87L122.03,91.71L122.25,91.53L122.43,91.34L122.59,91.14L122.71,90.93L122.80,90.72L122.86,90.50L122.89,90.27"/><path d="M120.13,96.23L119.99,96.26L119.65,96.29L119.30,96.30L118.96,96.29L118.61,96.26L118.27,96.21L117.96,96.14L118.04,96.16L118.13,96.19L118.26,96.22L118.39,96.25L118.52,96.28L118.58,96.29L118.66,96.30L118.80,96.31L118.94,96.32L119.04,96.33L119.18,96.33L119.32,96.33L119.46,96.33L119.56,96.32L119.74,96.30L119.88,96.28L119.98,96.27L120.13,96.23L120.33,96.20L120.66,96.13L120.98,96.03L121.28,95.92L121.56,95.79L121.73,95.69L121.70,95.72L121.63,95.80L121.55,95.87L121.45,95.95L121.37,96.02L121.27,96.09L121.20,96.13L121.10,96.19L120.99,96.25L120.87,96.31L120.83,96.33L120.75,96.36L120.63,96.41L120.46,96.47L120.29,96.51L120.15,96.55L120.02,96.58L119.88,96.60L119.75,96.62L119.61,96.63L119.51,96.64L119.37,96.65L119.26,96.65L119.09,96.65L118.95,96.64L118.81,96.63L118.68,96.62L118.58,96.60L118.45,96.58L118.32,96.55L118.19,96.52L118.08,96.49L117.94,96.45L117.82,96.40L117.74,96.37L117.62,96.32L117.52,96.27L117.41,96.21L117.35,96.17L117.31,96.15L117.22,96.09L117.13,96.02L117.07,95.97L116.99,95.90L116.92,95.83L116.85,95.75L116.79,95.67L116.77,95.64L116.59,95.51"/><path d="M122.48,88.86L122.19,88.85L122.03,88.84L121.86,88.84L121.72,88.85L121.58,88.85L121.45,88.86L121.32,88.88L121.20,88.90L121.09,88.92L120.98,88.94L120.87,88.96L120.76,88.99L120.66,89.02L120.55,89.06L120.45,89.09L120.35,89.13L120.25,89.18L120.14,89.23L120.04,89.28L119.93,89.34L119.82,89.40L119.70,89.47L119.58,89.54L119.46,89.62L119.33,89.71L119.19,89.81L119.04,89.91L118.88,90.04L118.72,90.16L118.43,90.40L118.44,92.29L116.08,89.70L116.07,89.19"/><path d="M118.43,90.40L118.27,90.10L118.07,89.76L117.90,89.48L117.75,89.24L117.62,89.04L117.49,88.86L117.36,88.71L117.24,88.57L117.12,88.44L117.00,88.33L116.94,88.28L116.87,88.22L116.81,88.18L116.73,88.13L116.66,88.08L116.59,88.04L116.51,87.99L116.42,87.95L116.33,87.91L116.22,87.87L116.06,87.81"/><path d="M116.77,95.64L116.79,95.65L117.05,95.80L117.33,95.93L117.63,96.04L117.96,96.14"/><path d="M116.71,95.60L116.73,95.65L116.79,95.73L116.85,95.80L116.91,95.88L116.99,95.96L117.04,96.00L117.12,96.07L117.21,96.14L117.29,96.19L117.40,96.26L117.50,96.32L117.61,96.37L117.69,96.41L117.80,96.46L117.92,96.50L118.04,96.54L118.17,96.58L118.30,96.61L118.43,96.64L118.52,96.65L118.65,96.67L118.79,96.69L118.93,96.70L119.07,96.71L119.21,96.71L119.41,96.71L119.58,96.70L119.72,96.68L119.86,96.66L120.00,96.64L120.13,96.61L120.26,96.58L120.35,96.56L120.48,96.52L120.61,96.48L120.73,96.43L120.85,96.38L120.96,96.33L121.07,96.27L121.15,96.23L121.25,96.16L121.35,96.09L121.44,96.02L121.53,95.95L121.61,95.88L121.69,95.80L121.74,95.74L121.81,95.64L121.73,95.69"/><path d="M117.32,88.62L117.46,88.74L117.62,88.85L117.79,88.95L117.98,89.04L118.18,89.12L118.40,89.18L118.62,89.23L118.85,89.26L119.08,89.28L119.32,89.28L119.56,89.27L119.79,89.25L120.01,89.20"/><path d="M117.10,88.35L117.03,88.21L116.97,88.06L116.94,87.91L116.94,87.76L116.96,87.61L117.00,87.46L117.07,87.31L117.15,87.17L117.26,87.04L117.39,86.91L117.54,86.80L117.71,86.69L117.89,86.59"/><path d="M117.42,95.96L117.54,96.03L117.65,96.08L117.76,96.13L117.88,96.17L117.96,96.20L118.09,96.24L118.22,96.27L118.35,96.30L118.48,96.33L118.62,96.35L118.75,96.37L118.85,96.38L118.99,96.39L119.14,96.39L119.27,96.39L119.41,96.39L119.55,96.38L119.69,96.37L119.79,96.36L119.93,96.33L120.11,96.30L120.20,96.28L120.33,96.25L120.46,96.21L120.59,96.17L120.68,96.13L120.79,96.09"/><path d="M117.98,87.85L117.99,87.94L118.04,88.07L118.12,88.19L118.23,88.30L118.37,88.40L118.54,88.48L118.72,88.55L118.91,88.59L119.12,88.62L119.33,88.62L119.53,88.61L119.68,88.58L119.73,88.57L119.92,88.51L120.09,88.43L120.24,88.34L120.37,88.23L120.46,88.11L120.53,87.98L120.56,87.85L120.56,87.72L120.53,87.58L120.46,87.46L120.36,87.34L120.23,87.23L120.08,87.14L120.01,87.11L119.91,87.07L119.72,87.01L119.52,86.98L119.31,86.96L119.10,86.97L118.90,87.00L118.70,87.05L118.52,87.11L118.36,87.20L118.23,87.30L118.18,87.35L118.12,87.41L118.03,87.54L117.99,87.67L117.97,87.80L117.98,87.85L117.99,87.76L118.04,87.63L118.12,87.50L118.23,87.39L118.36,87.29L118.53,87.20L118.71,87.13L118.90,87.08L119.10,87.06L119.31,87.05L119.52,87.06L119.72,87.10L119.76,87.11L119.91,87.16L120.08,87.23L120.24,87.32L120.36,87.43L120.46,87.55L120.53,87.67L120.56,87.80L120.56,87.85"/><path d="M118.44,92.29L122.49,90.75L122.48,89.15"/><path d="M118.93,87.94L118.92,87.88L118.93,87.83L118.97,87.77L119.02,87.73L119.09,87.69L119.18,87.67L119.27,87.66L119.36,87.67L119.44,87.69L119.51,87.72L119.57,87.77L119.60,87.82L119.61,87.88L119.60,87.94L119.57,87.99L119.51,88.04L119.44,88.07L119.36,88.09L119.27,88.10L119.18,88.10L119.10,88.07L119.02,88.04L118.97,87.99L118.93,87.94"/><path d="M121.22,86.97L121.08,86.84L120.92,86.73L120.75,86.63L120.56,86.54L120.35,86.47L120.14,86.40L119.92,86.36L119.69,86.32L119.45,86.30L119.22,86.30L118.98,86.31L118.80,86.33L118.75,86.34L118.52,86.38"/><path d="M121.43,87.23L121.51,87.38L121.56,87.52L121.59,87.67L121.60,87.83L121.58,87.98L121.54,88.12L121.47,88.27L121.38,88.41L121.27,88.55L121.14,88.67L120.99,88.79L120.82,88.90L120.64,88.99"/><path d="M121.81,95.64L122.01,95.51L121.99,95.55L121.97,95.61L121.93,95.70L121.88,95.79L121.82,95.87L121.76,95.96L121.69,96.04L121.63,96.10"/><path d="M122.01,95.51L122.06,95.48"/></g><g style="stroke:#000000;stroke-width:0.529"><path d="M116.59,95.51L116.55,95.49L116.34,95.31L116.16,95.12L116.00,94.92L115.88,94.71L115.79,94.50L115.73,94.28L115.71,94.06L115.68,90.29L115.69,90.07L115.73,89.85L115.81,89.63L115.92,89.42L116.06,89.21L116.07,89.19L116.06,87.81L116.35,87.58L116.51,87.45L116.68,87.33L116.82,87.22L116.96,87.12L117.09,87.03L117.22,86.95L117.33,86.88L117.45,86.81L117.56,86.75L117.67,86.69L117.77,86.64L117.88,86.59L117.98,86.55L118.08,86.51L118.19,86.47L118.29,86.44L118.40,86.41L118.50,86.38L118.61,86.35L118.72,86.33L118.84,86.31L118.95,86.29L119.08,86.28L119.21,86.27L119.35,86.26L119.50,86.26L119.66,86.26L119.83,86.26L120.11,86.28L120.27,86.34L120.38,86.38L120.47,86.42L120.56,86.46L120.63,86.50L120.71,86.55L120.78,86.59L120.85,86.64L120.92,86.69L120.99,86.74L121.05,86.79L121.11,86.85L121.23,86.97L121.35,87.10L121.41,87.17L121.54,87.33L121.67,87.50L121.73,87.60L121.87,87.82L122.03,88.07L122.12,88.22L122.32,88.57L122.48,88.86L122.48,89.15"/><path d="M122.48,89.15L122.52,89.20L122.66,89.40L122.77,89.61L122.84,89.83L122.88,90.05L122.89,90.27L122.91,94.04L122.89,94.26L122.83,94.48L122.74,94.70L122.61,94.91L122.46,95.11L122.27,95.30L122.06,95.48"/></g></g><g id="Actor_.13"><g style="stroke:#000000;stroke-width:0.176"><path d="M194.57,112.81L194.60,113.03L194.67,113.25L194.77,113.46L194.90,113.67L195.06,113.87L195.25,114.05L195.47,114.23L195.71,114.39L195.98,114.53L196.27,114.65L196.57,114.76L196.89,114.85L197.22,114.92L197.56,114.96L197.91,114.99L198.26,114.99L198.60,114.98L198.95,114.94L199.28,114.88L199.61,114.80L199.92,114.70L200.22,114.58L200.49,114.44L200.75,114.29L200.98,114.12L201.18,113.94L201.36,113.74L201.51,113.54L201.62,113.33L201.71,113.11L201.76,112.89L201.77,112.67"/><path d="M196.81,114.63L201.19,113.54L201.18,111.65L200.87,111.61L200.69,111.58L200.51,111.56L200.36,111.55L200.20,111.54L200.06,111.54L199.92,111.54L199.80,111.54L199.67,111.55L199.55,111.56L199.43,111.57L199.32,111.59L199.21,111.61L199.10,111.63L198.98,111.66L198.87,111.69L198.76,111.72L198.65,111.76L198.53,111.80L198.41,111.84L198.30,111.89L198.17,111.95L198.04,112.01L197.90,112.07L197.77,112.15L197.61,112.23L197.46,112.32L197.28,112.43L197.11,112.53L196.79,112.74L196.81,114.63L195.14,111.82L195.14,111.45"/><path d="M196.79,112.74L196.68,112.42L196.54,112.06L196.42,111.77L196.32,111.52L196.22,111.30L196.13,111.12L196.04,110.95L195.96,110.80L195.87,110.66L195.79,110.54L195.70,110.42L195.60,110.31L195.55,110.26L195.50,110.21L195.44,110.16L195.38,110.10L195.32,110.06L195.24,110.01L195.13,109.93"/><path d="M198.87,118.71L198.97,118.70L199.31,118.64L199.63,118.56L199.95,118.46L200.24,118.34L200.52,118.20L200.59,118.16L200.54,118.21L200.47,118.29L200.41,118.34L200.31,118.42L200.22,118.49L200.13,118.55L200.01,118.62L199.92,118.68L199.80,118.73L199.72,118.77L199.60,118.82L199.48,118.87L199.30,118.92L199.22,118.95L199.09,118.98L198.96,119.01L198.86,119.03L198.73,119.05L198.59,119.07L198.45,119.08L198.31,119.09L198.17,119.10L198.03,119.10L197.93,119.09L197.79,119.09L197.66,119.07L197.52,119.06L197.38,119.04L197.25,119.01L197.10,118.97L197.03,118.96L196.91,118.92L196.78,118.88L196.67,118.84L196.57,118.79L196.44,118.74L196.33,118.68L196.27,118.64L196.17,118.58L196.07,118.51L195.99,118.45L195.91,118.38L195.83,118.30L195.76,118.23L195.72,118.18L195.65,118.09L195.74,118.15L196.01,118.29L196.29,118.42L196.60,118.52L196.92,118.61L196.95,118.62L197.10,118.66L197.22,118.69L197.36,118.72L197.46,118.73L197.60,118.75L197.74,118.76L197.87,118.77L197.98,118.78L198.15,118.78L198.30,118.78L198.40,118.77L198.54,118.76L198.68,118.74L198.87,118.71L198.63,118.74L198.28,118.76L197.93,118.75L197.59,118.73L197.25,118.68L196.95,118.62"/><path d="M195.65,118.09L195.60,118.05L195.65,118.15L195.69,118.20L195.75,118.28L195.82,118.35L195.89,118.42L195.98,118.50L196.06,118.56L196.15,118.63L196.22,118.67L196.32,118.73L196.43,118.79L196.54,118.84L196.65,118.89L196.76,118.93L196.89,118.98L196.97,119.00L197.10,119.04L197.23,119.07L197.37,119.09L197.50,119.11L197.63,119.13L197.77,119.15L197.86,119.15L198.01,119.16L198.15,119.16L198.29,119.15L198.42,119.15L198.56,119.13L198.70,119.12L198.79,119.10L198.93,119.08L199.04,119.06L199.20,119.02L199.33,118.98L199.45,118.94L199.57,118.89L199.66,118.86L199.78,118.81L199.89,118.75L200.00,118.69L200.10,118.63L200.20,118.56L200.30,118.49L200.36,118.44L200.45,118.37L200.53,118.29L200.60,118.21L200.67,118.13L200.69,118.10L200.59,118.16"/><path d="M195.47,117.97L195.50,117.99L195.60,118.05"/><path d="M195.87,110.57L195.84,110.42L195.82,110.27L195.83,110.12L195.87,109.97L195.92,109.82L196.00,109.68L196.11,109.54L196.23,109.41L196.37,109.29L196.53,109.18L196.71,109.08L196.90,108.99L197.11,108.92"/><path d="M196.36,118.44L196.46,118.49L196.57,118.54L196.69,118.59L196.81,118.64L196.94,118.68L197.06,118.71L197.19,118.74L197.29,118.76L197.42,118.79L197.56,118.81L197.69,118.82L197.83,118.83L197.97,118.84L198.14,118.84L198.21,118.84L198.35,118.83L198.49,118.82L198.63,118.81L198.77,118.79L198.91,118.77L199.04,118.74L199.14,118.71L199.27,118.68L199.40,118.64L199.52,118.60L199.59,118.57"/><path d="M196.02,110.86L196.12,110.99L196.25,111.12L196.40,111.24L196.56,111.34L196.74,111.44L196.93,111.53L197.14,111.60L197.36,111.66L197.59,111.70L197.82,111.73L198.05,111.74L198.26,111.74L198.29,111.74L198.52,111.72"/><path d="M196.86,110.30L196.87,110.39L196.92,110.52L197.00,110.64L197.11,110.75L197.25,110.85L197.41,110.94L197.59,111.00L197.79,111.05L197.99,111.07L198.20,111.08L198.41,111.06L198.61,111.02L198.80,110.97L198.90,110.92L198.97,110.89L199.12,110.80L199.25,110.69L199.29,110.64L199.35,110.57L199.41,110.44L199.44,110.31L199.44,110.26L199.41,110.13L199.35,110.01L199.25,109.89L199.12,109.78L198.97,109.69L198.80,109.61L198.61,109.56L198.41,109.52L198.26,109.51L198.20,109.51L198.00,109.51L197.79,109.54L197.60,109.59L197.41,109.65L197.25,109.74L197.11,109.84L197.00,109.95L196.92,110.08L196.87,110.21L196.86,110.30L196.85,110.25L196.87,110.12L196.92,109.99L197.00,109.87L197.11,109.75L197.25,109.65L197.41,109.57L197.59,109.50L197.79,109.45L197.99,109.42L198.20,109.42L198.41,109.43L198.61,109.47L198.80,109.52L198.97,109.60L199.12,109.69L199.25,109.80L199.35,109.92L199.41,110.04L199.44,110.18L199.44,110.26"/><path d="M197.85,110.44L197.87,110.47L197.93,110.51L198.01,110.54L198.10,110.56L198.19,110.56L198.27,110.54L198.35,110.52L198.42,110.48L198.47,110.43L198.49,110.37L198.50,110.31L198.48,110.26L198.43,110.21L198.37,110.16L198.29,110.13L198.21,110.12L198.12,110.12L198.03,110.13L197.95,110.16L197.88,110.20L197.84,110.25L197.81,110.30L197.81,110.36L197.83,110.42L197.85,110.44"/><path d="M200.28,109.64L200.18,109.50L200.07,109.40L200.05,109.38L199.91,109.26L199.74,109.15L199.56,109.05L199.37,108.97L199.16,108.90L198.94,108.84L198.72,108.80L198.49,108.77L198.25,108.76L198.01,108.76L197.78,108.78"/><path d="M200.43,109.93L200.47,110.08L200.48,110.23L200.47,110.38L200.44,110.53L200.38,110.67L200.30,110.82L200.20,110.95L200.07,111.08L199.93,111.20L199.77,111.32L199.59,111.42L199.40,111.50L199.19,111.58"/><path d="M200.69,118.10L200.77,118.05L200.89,117.97L200.87,118.03L200.82,118.13L200.78,118.20L200.73,118.29L200.69,118.35L200.62,118.43L200.55,118.51L200.48,118.59L200.40,118.66L200.31,118.73L200.28,118.76"/><path d="M200.89,117.97L200.94,117.93"/><path d="M201.18,111.65L201.04,111.28"/></g><g style="stroke:#000000;stroke-width:0.529"><path d="M201.04,111.28L200.93,110.98L200.86,110.82L200.75,110.55L200.65,110.32L200.56,110.12L200.47,109.94L200.39,109.79L200.30,109.65L200.22,109.51L200.13,109.39L200.04,109.28L199.99,109.23L199.94,109.17L199.88,109.12L199.83,109.07L199.76,109.02L199.70,108.97L199.63,108.92L199.52,108.85L199.20,108.80L199.03,108.78L198.85,108.76L198.69,108.75L198.54,108.74L198.40,108.74L198.26,108.74L198.13,108.74L198.01,108.75L197.89,108.76L197.77,108.77L197.66,108.79L197.54,108.81L197.43,108.83L197.32,108.85L197.21,108.88L197.10,108.92L196.98,108.95L196.87,108.99L196.75,109.04L196.63,109.09L196.51,109.14L196.38,109.20L196.24,109.27L196.10,109.34L195.95,109.43L195.80,109.52L195.62,109.62L195.44,109.73L195.13,109.93L195.14,111.45L195.06,111.52L194.90,111.72L194.77,111.93L194.67,112.14L194.60,112.36L194.57,112.59L194.57,112.81L194.59,116.57L194.63,116.80L194.69,117.01L194.79,117.23L194.93,117.43L195.09,117.63L195.28,117.82L195.47,117.97"/><path d="M201.04,111.28L201.18,111.40L201.36,111.60L201.51,111.80L201.62,112.01L201.71,112.22L201.76,112.45L201.77,112.67L201.80,116.43L201.78,116.65L201.73,116.88L201.65,117.09L201.53,117.30L201.39,117.51L201.21,117.70L201.01,117.88L200.94,117.93"/></g></g><g id="Actor_.14"><g style="stroke:#000000;stroke-width:0.176"><path d="M108.21,116.85L108.91,117.52L110.12,118.60L111.26,119.54L112.30,120.31"/><path d="M115.33,118.77L115.46,119.19L115.65,119.61L115.79,119.83L116.07,120.21L116.30,120.45L116.77,120.80L117.19,121.02L117.62,121.17L118.10,121.27L118.54,121.29L118.90,121.27L119.22,121.22L119.54,121.14L120.02,120.96L120.41,120.75L120.94,120.37"/><path d="M118.23,133.96L118.24,133.98"/><path d="M129.16,137.18L129.24,137.22"/><path d="M131.48,138.11L131.33,138.08"/><path d="M131.40,138.09L132.01,138.23"/><path d="M134.03,138.50L133.98,138.50L134.17,138.50"/><path d="M136.88,138.28L135.85,138.45"/><path d="M137.49,92.33L137.54,92.27"/><path d="M138.90,137.76L139.11,137.68"/><path d="M141.04,136.90L142.20,136.28"/><path d="M144.35,134.91L145.33,134.14"/><path d="M144.76,140.10L145.11,139.90"/><path d="M147.36,74.76L147.34,74.80"/><path d="M149.11,130.48L148.43,131.26"/><path d="M148.94,137.13L148.59,137.42"/><path d="M149.66,69.00L149.66,68.95"/><path d="M153.31,132.63L153.34,132.58"/><path d="M169.28,142.43L169.34,142.54"/><path d="M169.17,142.02L169.10,141.74L169.11,141.75"/><path d="M169.13,141.53L169.14,141.69"/><path d="M169.20,141.00L169.20,140.98"/><path d="M169.56,142.98L169.73,143.22"/><path d="M169.73,139.35L169.71,139.41"/><path d="M170.54,144.10L170.50,144.07L170.55,144.12"/><path d="M171.94,145.06L171.89,145.04L172.00,145.09"/><path d="M174.69,146.07L174.75,146.08"/><path d="M183.69,146.43L183.72,146.43"/><path d="M189.14,145.23L189.07,145.26"/><path d="M190.56,149.61L189.72,149.90"/><path d="M191.10,110.09L191.03,110.14"/><path d="M191.32,144.18L191.30,144.19"/><path d="M192.49,143.37L192.47,143.38"/><path d="M193.14,148.45L192.83,148.62"/><path d="M192.99,142.91L192.91,143.00"/><path d="M193.80,141.97L193.78,142.00L193.85,141.90"/><path d="M194.18,141.37L194.13,141.48"/><path d="M194.82,140.02L194.81,140.07L194.83,140.00"/><path d="M195.36,138.24L195.35,138.26"/></g><g style="stroke:#000000;stroke-width:0.529"><path d="M118.23,133.96L116.58,132.15L112.12,127.03L109.53,124.10L107.63,122.05L105.90,120.28L104.20,118.65L102.56,117.19L101.20,116.06"/><path d="M150.46,128.78L150.19,129.15L149.34,130.21L148.49,131.18L147.52,132.18L146.51,133.14L145.45,134.05L144.48,134.80L143.35,135.57L142.21,136.27L141.22,136.79L140.06,137.32L139.11,137.68L137.97,138.02L136.88,138.28L136.09,138.40L135.02,138.49L134.17,138.50L133.23,138.43L132.27,138.29L131.55,138.12L130.64,137.83L129.95,137.55L129.24,137.22L128.34,136.71L127.40,136.10L126.41,135.37L125.35,134.50L124.23,133.49L122.99,132.28L121.61,130.83L120.02,129.09L115.59,124.01L112.95,121.02L112.30,120.31L113.33,121.00L113.83,121.30L114.33,121.59L115.26,122.05L115.73,122.25L116.69,122.60L117.24,122.76L118.24,122.99L119.26,123.14L120.33,123.20L121.32,123.18L122.35,123.09L123.45,122.92L124.13,122.79L124.80,122.63L126.18,122.26L126.84,122.05"/><path d="M155.18,130.12L154.32,131.33L153.39,132.53L152.36,133.76L151.30,134.91L150.20,136.01L149.05,137.03L147.75,138.10L146.53,139.00L145.28,139.80L143.84,140.63L142.58,141.25L141.94,141.52L141.10,141.85L139.83,142.29L138.58,142.62L137.14,142.90L135.97,143.05L135.36,143.09L133.90,143.10L132.73,143.02L131.58,142.84L130.80,142.68L130.24,142.54L129.12,142.19L128.26,141.84L127.07,141.28L125.86,140.60L124.74,139.87L123.58,139.01L122.38,138.03L121.13,136.90L119.78,135.58L118.24,133.98"/><path d="M139.16,84.22L135.72,87.53L133.85,89.48L132.62,90.85L131.53,92.14L130.54,93.40L129.68,94.53"/><path d="M134.45,95.88L135.51,94.57L136.97,92.89"/><path d="M136.95,92.91L138.01,91.78L138.93,90.84L144.38,85.58L145.36,84.60L146.44,83.47"/><path d="M149.25,70.89L149.01,71.54L148.70,72.27L148.32,73.06L147.87,73.90L147.36,74.76L146.77,75.69L146.26,76.41"/><path d="M149.66,68.80L149.63,69.31L149.54,69.80L149.42,70.34L149.23,70.94"/><path d="M154.26,68.22L154.26,69.09L154.23,69.62L154.13,70.38L153.98,71.13L153.63,72.34L153.09,73.75L152.43,75.16L151.61,76.65L150.98,77.67"/><path d="M193.19,148.42L193.29,148.37L192.24,148.92L191.75,149.14L190.78,149.54L189.62,149.93L188.47,150.26L187.18,150.56L185.75,150.81L184.34,150.99L183.52,151.07L181.67,151.18L180.07,151.22L178.54,151.19L177.10,151.09L175.74,150.94L175.09,150.84L173.89,150.60L172.50,150.24L171.96,150.07L170.93,149.68L169.98,149.23L168.85,148.58L168.06,148.02L167.70,147.72L167.11,147.19L166.49,146.54L166.21,146.20L165.78,145.60L165.37,144.91L165.21,144.58L164.95,143.97L164.83,143.64L164.74,143.30L164.60,142.65L164.53,141.93L164.54,141.19L164.57,140.80L164.66,140.22L164.85,139.37L164.99,138.91L165.26,138.14L165.70,137.08L166.30,135.87L167.08,134.48L168.08,132.85"/><path d="M195.68,136.42L195.58,137.10L195.36,138.24L195.12,139.14L194.83,140.00L194.52,140.74L194.18,141.37L193.80,141.97L193.42,142.46L192.99,142.91L192.49,143.37L191.98,143.76L191.31,144.19L190.68,144.54L189.87,144.93L189.14,145.23L188.29,145.52L187.31,145.80L186.20,146.05L184.94,146.27L183.72,146.43L182.39,146.54L180.92,146.60L179.50,146.60L178.15,146.54L176.90,146.43L175.74,146.27L174.75,146.08L173.99,145.87L173.53,145.73L172.68,145.41L172.28,145.23L171.78,144.97L171.10,144.54L170.79,144.31L170.47,144.04L170.21,143.78L169.73,143.22L169.55,142.94L169.34,142.54L169.22,142.23L169.17,142.02L169.14,141.69L169.16,141.29L169.21,140.95L169.41,140.22L169.56,139.80L169.84,139.13L170.38,138.02L171.11,136.72L172.06,135.19L173.28,133.35"/><path d="M206.26,105.13L204.50,105.36L203.22,105.55L201.96,105.78L200.72,106.04L199.51,106.33L198.32,106.66L197.16,107.02L196.04,107.43L194.55,108.05L193.29,108.67L192.50,109.13L191.73,109.63L191.03,110.14L190.31,110.74L189.44,111.54"/><path d="M192.85,148.61L192.86,148.60"/><path d="M192.95,148.56L193.18,148.43"/><path d="M193.29,148.37L194.16,147.84L195.07,147.20L195.45,146.90L196.14,146.29L196.58,145.85L197.29,145.00L197.85,144.22L198.19,143.66L198.66,142.77L198.94,142.14L199.33,141.11L199.51,140.56L199.71,139.84L200.00,138.61L200.12,137.95L200.30,136.72"/><path d="M193.38,103.52L195.02,102.89L196.34,102.44L198.35,101.87L200.41,101.39L202.49,101.00L204.58,100.69L206.70,100.45L209.71,100.21"/></g></g><g id="Actor_.15"><g style="stroke:#000000;stroke-width:0.176"><path d="M148.31,87.71L148.63,87.26L148.74,87.13L148.87,87.03L149.01,86.93L149.16,86.85L149.31,86.79L149.16,86.84L148.99,86.89L148.91,86.92L148.74,86.96L148.57,87.00L148.49,87.02L148.40,87.04L148.22,87.07"/><path d="M148.63,87.26L148.63,87.26L148.53,87.39L148.29,87.73L148.24,87.82"/><path d="M152.23,88.95L152.16,88.85L152.07,88.74L151.97,88.63L151.87,88.52L151.76,88.42L151.64,88.32L151.52,88.23L151.40,88.15L151.27,88.07L151.14,88.00L151.01,87.93L150.89,87.88L150.74,87.82L150.60,87.78L150.48,87.75L150.35,87.72L150.22,87.70L150.07,87.69L149.96,87.69L149.83,87.69L149.71,87.70L149.59,87.73L149.48,87.75L149.37,87.79L149.30,87.82L149.27,87.84L149.17,87.89L149.09,87.95L149.00,88.01L148.93,88.09L148.86,88.17L148.81,88.25L148.76,88.34L148.74,88.39L148.72,88.44L148.68,88.54L148.66,88.64L148.65,88.75L148.64,88.87L148.65,88.98L148.66,89.10L148.68,89.21L148.72,89.33L148.76,89.45L148.80,89.57L148.86,89.69L148.93,89.81L148.95,89.84L149.00,89.93L149.08,90.04L149.17,90.15L149.27,90.26L149.37,90.36L149.44,90.42L149.48,90.46L149.59,90.56L149.71,90.65L149.83,90.73L149.95,90.81L150.06,90.87L150.08,90.88L150.21,90.94L150.34,91.00L150.48,91.05L150.61,91.09L150.75,91.13L150.88,91.16L150.92,91.16L151.01,91.18L151.14,91.19L151.27,91.19L151.36,91.19L151.40,91.19L151.52,91.17L151.64,91.15L151.75,91.12L151.86,91.08L151.96,91.04L152.05,90.99L152.14,90.93L152.22,90.86L152.30,90.79L152.36,90.71L152.42,90.62L152.47,90.53L152.51,90.44L152.55,90.34L152.57,90.23L152.58,90.12L152.59,90.01L152.58,89.90L152.57,89.78L152.55,89.66L152.51,89.54L152.47,89.42L152.42,89.30L152.37,89.18L152.30,89.07L152.23,88.95L152.24,88.97"/><path d="M148.53,87.39L148.53,87.39"/><path d="M153.53,89.44L153.50,89.28L153.48,89.08L153.46,88.87L153.45,88.76L153.45,88.64L153.44,88.40L153.43,88.13L153.43,87.98L153.28,87.92L153.15,87.87L153.01,87.81L152.88,87.76L152.76,87.70L152.64,87.64L152.53,87.59L152.42,87.53L152.31,87.47L152.10,87.35L151.92,87.24L151.73,87.13L151.53,87.02L151.32,86.93L151.10,86.85L150.89,86.78L150.67,86.73L150.46,86.69L150.25,86.67L150.05,86.66L149.85,86.67L149.66,86.70L149.47,86.74L149.31,86.79L149.47,86.73L149.65,86.65L149.84,86.57L149.94,86.53L150.15,86.43L150.25,86.38L150.37,86.33L150.62,86.20L150.73,86.31L150.84,86.41L150.94,86.50L151.05,86.59L151.15,86.68L151.25,86.76L151.35,86.84L151.44,86.91L151.54,86.99L151.74,87.12L151.92,87.24L152.10,87.36L152.29,87.50L152.46,87.65L152.49,87.68L152.63,87.82L152.79,87.98L152.93,88.16L153.07,88.34L153.18,88.52L153.28,88.71L153.37,88.90L153.44,89.09L153.49,89.28L153.53,89.44L153.55,89.64L153.55,89.82L153.54,89.99L153.51,90.16L153.46,90.32L153.39,90.47L153.31,90.61L153.05,90.99L153.03,91.01"/><path d="M150.60,87.78L150.60,87.78"/><path d="M150.56,87.77L150.52,87.75"/><path d="M150.62,86.20L151.47,84.98"/><path d="M152.51,90.44L152.47,90.53"/><path d="M153.84,90.63L153.77,90.45L153.74,90.35L153.70,90.22L153.66,90.08L153.64,89.99L153.60,89.82L153.56,89.64L153.53,89.45"/><path d="M153.43,87.98L154.28,86.76"/></g><g style="stroke:#000000;stroke-width:0.529"><path d="M148.22,89.55L148.17,89.41L148.12,89.27L148.09,89.12L148.06,88.98L148.04,88.84L148.04,88.81L148.03,88.67L148.03,88.53L148.05,88.40L148.08,88.24L148.11,88.11L148.16,87.99L148.21,87.88L148.24,87.82L148.23,87.61L148.23,87.49L148.22,87.35L148.22,87.07L149.07,85.85L149.32,85.73L149.44,85.67L149.65,85.57L149.85,85.48L150.04,85.40L150.22,85.32L150.38,85.26L150.53,85.21L150.70,85.16L150.78,85.13L150.95,85.09L151.03,85.07L151.20,85.03L151.29,85.01L151.47,84.98L151.66,85.05L151.89,85.15L152.02,85.21L152.14,85.26L152.26,85.32L152.37,85.37L152.48,85.43L152.59,85.49L152.80,85.61L152.98,85.72L153.17,85.84L153.36,85.98L153.46,86.05L153.56,86.12L153.66,86.20L153.75,86.28L153.86,86.37L153.96,86.46L154.07,86.56L154.17,86.65L154.28,86.76L154.35,86.95L154.38,87.05L154.41,87.13L154.46,87.31L154.49,87.41L154.53,87.58L154.57,87.76L154.59,87.93L154.62,88.11L154.64,88.31L154.65,88.41L154.67,88.63L154.68,88.87L154.69,88.99L154.69,89.26L154.69,89.41L153.84,90.63L153.70,90.70L153.47,90.81L153.25,90.91L153.03,91.01L152.97,91.09L152.86,91.21L152.76,91.30L152.66,91.38L152.55,91.45L152.52,91.47L152.40,91.53L152.28,91.58L152.15,91.63L151.98,91.67L151.84,91.70L151.70,91.72L151.55,91.73L151.40,91.73L151.25,91.72L151.06,91.70L150.91,91.67L150.75,91.64L150.59,91.60L150.43,91.55L150.27,91.49L150.12,91.42L149.96,91.35L149.81,91.27L149.66,91.18L149.52,91.08L149.37,90.98L149.24,90.87L149.11,90.76L148.98,90.64L148.86,90.52L148.75,90.39L148.64,90.26L148.54,90.13L148.45,89.99L148.37,89.86L148.29,89.69L148.22,89.55"/></g></g><g id="Actor_.16"><g style="stroke:#000000;stroke-width:0.176"><path d="M122.01,83.01L122.23,82.98"/><path d="M124.88,82.53L125.41,82.38"/><path d="M125.19,82.44L125.42,82.38"/><path d="M126.38,82.09L126.42,82.08"/><path d="M128.05,81.46L128.04,81.47L128.23,81.38"/><path d="M128.41,81.30L129.61,80.77"/><path d="M138.02,84.65L138.14,84.60"/><path d="M141.20,83.59L141.24,83.59"/><path d="M141.98,83.42L142.17,83.39"/><path d="M143.53,83.20L143.87,83.20"/><path d="M146.00,83.36L145.98,83.36"/><path d="M147.41,83.71L147.68,83.81"/></g><g style="stroke:#000000;stroke-width:0.529"><path d="M115.79,89.68L115.50,89.65L113.78,89.36L112.90,89.19L111.96,88.99L111.08,88.79L110.14,88.56L108.21,88.04L102.12,86.31"/><path d="M122.27,82.98L121.32,83.05L120.37,83.08L119.16,83.06L117.86,82.96L116.47,82.79L115.01,82.55L113.45,82.23L111.78,81.84L110.08,81.38L103.86,79.60"/><path d="M122.81,82.91L122.23,82.98"/><path d="M122.77,82.92L123.56,82.80L124.29,82.65L125.04,82.48L125.79,82.27L126.42,82.08L127.19,81.80L127.71,81.59L128.41,81.30"/><path d="M147.90,83.89L147.68,83.81L146.87,83.57L146.00,83.36L145.42,83.27L144.49,83.20L143.87,83.20L142.95,83.27L142.17,83.39L141.24,83.59L140.42,83.81L139.34,84.16L138.14,84.60L136.33,85.34L134.99,85.93L132.51,87.05L130.90,87.77L130.33,88.00L129.75,88.23L128.64,88.63L128.20,88.77L127.30,89.04L126.67,89.20L125.77,89.42L124.84,89.60L124.34,89.68L123.83,89.75L122.85,89.87"/><path d="M154.26,79.40L153.39,78.87L152.85,78.56L152.33,78.28L151.84,78.04L151.10,77.72L150.69,77.55L150.23,77.37L149.76,77.21L149.24,77.05L148.71,76.90L147.98,76.71L147.43,76.59L146.67,76.47L146.12,76.39L145.56,76.33L144.99,76.30L144.03,76.28L143.44,76.29L142.87,76.33L142.28,76.38L141.71,76.46L140.75,76.62L140.18,76.73L139.60,76.86L139.04,77.01L138.47,77.17L137.68,77.41L137.07,77.62L135.62,78.15L134.64,78.55L133.66,78.96L132.09,79.65L129.61,80.77L128.43,81.29"/></g></g><g id="Actor_.17"><g style="stroke:#000000;stroke-width:0.176"><path d="M187.06,74.14L187.04,74.89L186.90,75.63L186.65,76.36L186.30,77.07L185.85,77.76L185.30,78.42L184.65,79.04L183.92,79.62L183.11,80.16L182.22,80.64L181.27,81.07L180.26,81.44L179.19,81.75L178.09,82.00L176.96,82.17L175.81,82.28L174.65,82.32L173.49,82.29L172.34,82.19L171.21,82.02L170.11,81.78L169.57,81.64L169.05,81.48L168.04,81.12L167.08,80.69L166.20,80.21L165.39,79.68L164.66,79.11L164.02,78.49L163.47,77.83L163.43,77.78L163.02,77.15L162.67,76.44L162.43,75.71L162.29,74.97L162.27,74.23"/><path d="M164.73,80.15L164.67,80.13L164.61,80.08L164.58,80.05L164.52,79.98L164.44,79.84L164.39,79.69L164.37,79.60L164.37,79.55L164.37,79.51L164.39,79.45L164.40,79.42L164.44,79.39L164.49,79.39L164.54,79.41L164.60,79.45L164.64,79.48L164.73,79.60L164.78,79.69L164.82,79.79L164.84,79.89L164.85,79.94L164.85,80.02L164.84,80.05L164.82,80.11L164.78,80.14L164.73,80.15"/><path d="M184.18,84.28L183.56,84.73L182.71,85.24L181.79,85.70L180.80,86.10L179.76,86.44L178.68,86.72L177.56,86.93L176.42,87.07L175.26,87.14L174.10,87.15L172.94,87.08L171.80,86.95L170.69,86.74L169.61,86.47L168.57,86.14L167.59,85.75L166.67,85.29L165.82,84.79L165.29,84.41"/><path d="M183.27,68.62L183.30,68.66L183.54,69.09L183.80,69.68L183.94,70.13L184.03,70.58L184.06,70.75L184.09,71.21L184.10,73.23L184.08,73.79L183.98,74.36L183.79,74.91L183.52,75.46L183.18,75.98L182.76,76.48L182.27,76.96L181.71,77.40L181.09,77.81L180.42,78.18L179.69,78.50L178.92,78.79L178.11,79.02L177.27,79.21L176.41,79.34L175.87,79.39L175.53,79.43L174.65,79.46L173.76,79.43L173.38,79.40L172.89,79.35L172.02,79.23L171.19,79.05L170.78,78.94L170.38,78.82L169.61,78.54L168.88,78.22L168.27,77.88L168.21,77.85L167.59,77.45L167.03,77.01L166.55,76.54L166.13,76.04L165.79,75.51L165.52,74.97L165.34,74.42L165.23,73.86L165.21,73.29L165.20,71.20L165.27,70.58L165.37,70.12L165.52,69.67L165.58,69.52L165.78,69.08L165.99,68.74"/><path d="M175.62,83.22L175.71,83.27L175.76,83.29L175.86,83.30L175.91,83.30L176.02,83.29L176.12,83.25L176.20,83.19L176.27,83.12L176.29,83.08L176.32,83.00L176.32,82.96L176.32,82.91L176.31,82.87L176.29,82.84L176.27,82.80L176.20,82.74L176.12,82.70L176.07,82.68L176.02,82.67L175.91,82.67L175.80,82.69L175.71,82.73L175.62,82.78L175.56,82.85L175.52,82.93L175.51,82.97L175.50,83.01L175.51,83.05L175.52,83.09L175.56,83.17L175.62,83.22"/><path d="M176.31,82.89L176.32,82.96"/><path d="M185.82,78.65L185.80,78.58L185.81,78.45L185.83,78.35L185.85,78.25L185.89,78.15L185.93,78.06L186.00,77.96L186.02,77.93L186.06,77.91L186.09,77.91L186.12,77.93L186.13,77.96L186.14,78.02L186.14,78.10L186.12,78.25L186.10,78.36L186.06,78.46L186.00,78.58L185.96,78.65L185.94,78.67L185.89,78.70L185.86,78.70L185.83,78.67L185.82,78.65"/><path d="M187.10,79.35L187.10,79.33"/></g><g style="stroke:#000000;stroke-width:0.529"><path d="M165.29,84.41L165.05,84.23L164.36,83.64L163.76,83.00L163.26,82.33L162.86,81.63L162.57,80.91L162.38,80.18L162.30,79.43L162.27,74.23L162.35,73.48L162.45,73.11L162.54,72.75L162.84,72.02L163.24,71.32L163.75,70.65L164.34,70.01L165.03,69.41L165.81,68.85L165.99,68.74L166.04,68.66L166.43,68.12L166.78,67.73L167.17,67.36L167.61,67.01L168.18,66.60L168.69,66.30L169.23,66.02L169.79,65.77L170.27,65.59L170.39,65.55L171.01,65.35L171.66,65.19L172.32,65.06L172.99,64.96L173.67,64.89L174.36,64.86L175.05,64.86L175.74,64.89L176.42,64.96L177.09,65.06L177.74,65.19L178.38,65.36L179.00,65.55L179.59,65.77L180.16,66.03L180.69,66.31L181.19,66.61L181.29,66.68L181.76,67.01L182.19,67.36L182.57,67.74L182.91,68.13L183.00,68.25L183.27,68.62L183.55,68.79L184.32,69.34L185.01,69.94L185.60,70.58L186.10,71.25L186.50,71.95L186.80,72.67L186.91,73.11L186.98,73.40L187.06,74.14L187.10,79.35L187.01,80.09L186.82,80.83L186.52,81.55L186.12,82.25L185.62,82.93L185.02,83.57L184.33,84.17L184.18,84.28"/><path d="M165.29,84.41L165.30,85.47"/><path d="M184.18,84.28L184.23,90.85"/></g></g><g id="Actor_.18"><g style="stroke:#000000;stroke-width:0.176"><path d="M165.81,102.41L165.82,102.43L166.13,102.70"/><path d="M172.81,104.40L172.82,104.70L172.79,104.98L172.72,105.22L172.59,105.40L172.42,105.52"/><path d="M172.59,105.42L173.10,105.12L173.17,105.06L173.24,104.97L173.30,104.88L173.34,104.77L173.37,104.64L173.38,104.57"/></g><g style="stroke:#000000;stroke-width:0.529"><path d="M165.65,102.36L166.13,102.70L166.48,102.89L166.88,103.01L167.32,103.05L167.79,103.02L167.88,103.00"/><path d="M174.79,106.06L174.58,106.06L174.24,106.02L174.02,105.98L173.70,105.91L173.49,105.85L173.20,105.73L173.01,105.65L172.81,105.55L172.59,105.42L172.42,105.52L172.22,105.57L171.98,105.55L171.73,105.46L171.46,105.30L168.74,103.40L168.74,103.24"/></g></g><g id="Actor_.19"><g style="stroke:#000000;stroke-width:0.176"><path d="M177.46,114.17L177.41,114.20L177.07,114.33L176.70,114.44L176.31,114.51L175.91,114.55L175.51,114.55L175.11,114.51L174.72,114.44L174.36,114.34L174.02,114.20L174.00,114.19"/><path d="M175.53,108.97L177.08,109.41L177.25,110.49L175.87,111.13L174.33,110.69L174.16,109.61L175.53,108.97L175.54,110.30L174.56,110.75"/><path d="M175.54,110.30L176.85,110.67"/><path d="M177.08,109.41L177.09,110.56"/></g><g style="stroke:#000000;stroke-width:0.529"><path d="M174.00,114.19L173.71,114.03L173.44,113.84L173.22,113.63L173.04,113.40L172.92,113.15L172.85,112.90L172.84,112.64L172.82,110.13L172.84,109.95L172.85,109.92L172.90,109.74L172.98,109.57L172.99,109.54L173.10,109.37L173.22,109.21L173.38,109.06L173.57,108.90L173.76,108.77L173.97,108.65L174.20,108.55L174.45,108.46L174.70,108.39L174.93,108.34L174.97,108.34L175.24,108.30L175.51,108.27L175.79,108.27L176.07,108.28L176.34,108.31L176.61,108.36L176.87,108.42L177.12,108.50L177.27,108.57L177.35,108.60L177.57,108.71L177.77,108.83L177.97,108.98L178.13,109.13L178.27,109.29L178.38,109.45L178.40,109.48L178.48,109.65L178.54,109.83L178.58,110.04L178.59,110.22L178.61,112.63L178.59,112.89L178.52,113.15L178.39,113.39L178.21,113.62L177.99,113.84L177.72,114.03L177.46,114.17"/></g></g><g id="Actor_.20"><g style="stroke:#000000;stroke-width:0.176"><path d="M149.89,80.08L150.15,79.84L150.47,79.65L150.83,79.54L151.26,79.50L151.70,79.52L152.16,79.62L157.71,81.20L158.10,81.29L158.51,81.33L158.93,81.33L159.34,81.29L159.73,81.21L160.10,81.09L160.44,80.93L162.35,79.85"/><path d="M194.20,100.65L194.40,100.35L194.51,100.01L194.55,99.64L194.51,93.88L194.47,93.49L194.34,93.08L194.15,92.68L193.88,92.28L193.56,91.92L193.18,91.59L192.76,91.31L192.32,91.08L191.86,90.92L186.31,89.34L185.95,89.21L185.62,89.05L185.34,88.85L185.11,88.63L184.95,88.39L184.85,88.13L184.81,87.86"/><path d="M184.81,87.72L184.78,83.78"/><path d="M185.97,87.73L185.96,87.71"/><path d="M185.93,82.51L185.97,87.87"/></g><g style="stroke:#000000;stroke-width:0.529"><path d="M162.30,78.89L159.68,80.37L159.38,80.50L159.12,80.57L158.80,80.60L158.49,80.58L158.18,80.52L152.63,78.94L152.18,78.85L151.73,78.82L151.32,78.86L150.95,78.98L150.62,79.16L150.36,79.40L149.89,80.08L149.70,80.37L149.58,80.71L149.54,81.08L149.55,81.34"/><path d="M184.81,87.72L184.77,87.53L184.67,87.34L184.49,87.17L184.26,87.03L184.20,87.01"/><path d="M184.81,87.72L184.83,91.03"/><path d="M193.37,101.14L193.62,101.07L193.94,100.89L194.20,100.65L194.68,99.97L194.87,99.68L194.99,99.34L195.02,98.96L194.98,93.21L194.94,92.81L194.82,92.40L194.62,92.00L194.36,91.61L194.03,91.24L193.65,90.92L193.24,90.63L192.79,90.41L192.34,90.24L186.79,88.66L186.51,88.56L186.28,88.42L186.11,88.25L186.00,88.06L185.97,87.87"/><path d="M185.93,82.51L185.97,87.87"/></g></g><g/><g><g/><g><path style="stroke:#000000;stroke-width:0.125;fill:#ffffff" d="M110.41,160.00L190.41,160.00L190.41,172.00L110.41,172.00z"/><text xml:space="preserve" fill="#000000" stroke-width="0" x="127.78" y="167.76" font-size="6.83" opacity="1.00" font-family="MS Shell Dlg">Exploded View</text></g></g><g><g/><g><path style="stroke:#000000;stroke-width:0.125;fill:#ffffff" d="M5.00,190.00L33.80,190.00L33.80,204.11L5.00,204.11z"/><text xml:space="preserve" fill="#000000" stroke-width="0" x="6.76" y="199.70" font-size="8.42" opacity="1.00" font-family="MS Shell Dlg">HOME</text></g></g><g><g/><g><path style="stroke:#000000;stroke-width:0.125;fill:#ffffff" d="M235.00,190.00L261.40,190.00L261.40,204.11L235.00,204.11z"/><text xml:space="preserve" fill="#000000" stroke-width="0" x="236.76" y="199.70" font-size="8.40" opacity="1.00" font-family="MS Shell Dlg">BACK</text></g></g><g><g/><g><path style="stroke:#000000;stroke-width:0.125;fill:#ffffff" d="M120.00,3.44L175.12,3.44L175.12,15.29L120.00,15.29z"/><text xml:space="preserve" fill="#000000" stroke-width="0" x="121.48" y="11.59" font-size="7.22" opacity="1.00" font-family="MS Shell Dlg">Spray Assembly</text></g></g><g id="paperID" visibility="hidden" opacity="0.00" transform="scale(0.000100)"><path style="stroke:#000000;stroke-width:0.500;fill:#e6e6e6;fill-rule:evenodd" d="M-2000.00,-2000.00L2297.00,-2000.00L2297.00,2210.00L-2000.00,2210.00zM0.00,0.00L297.00,0.00L297.00,210.00L0.00,210.00z"/><path style="fill:#000000;fill-opacity:0.118" d="M3.00,210.00L297.00,210.00L297.00,3.00L300.00,3.00L300.00,213.00L3.00,213.00z"/></g><g id="ToolTip" visibility="hidden" opacity="0" transform="translate(0,0)"><rect id="ToolTipShadow" opacity="0.20" fill="black" stroke="none" x="0" y="0" width="30" height="8"/><rect id="ToolTipBG" fill="#ffffe1" stroke="black" x="0" y="0" width="30" height="8"/><text xml:space="preserve" id="ToolTipText" fill="black" x="0" y="0" width="30" height="8">tooltip</text></g></g></svg>